<?xml version="1.0" standalone="no"?>
<!DOCTYPE svg PUBLIC "-//W3C//DTD SVG 1.1//EN" "http://www.w3.org/Graphics/SVG/1.1/DTD/svg11.dtd">
<svg xmlns="http://www.w3.org/2000/svg">
<metadata>Generated by Fontastic.me</metadata>
<defs>
<font id="concur-icons" horiz-adv-x="512">
<font-face font-family="concur-icons" units-per-em="512" ascent="480" descent="-32"/>
<missing-glyph horiz-adv-x="512" />

<glyph glyph-name="atom" unicode="&#97;" d="M390 260c-13 15-29 29-47 43-3 24-8 46-14 65 41 7 73 0 85-20 0 0 0-1 1-1-14-4-25-17-25-33 0-12 7-23 17-29-5-8-10-16-17-25m26-108c-11-18-39-27-77-23-3 0-6 1-10 1 7 20 11 42 14 65 18 14 34 29 47 44 27-33 38-66 26-87m-167-96c-24 0-46 24-61 63 19 4 40 11 62 21 21-9 41-16 61-20-15-39-38-64-62-64m-102 71c-3 16-17 29-34 29-10 0-19-5-26-12-1 2-2 4-3 5-11 18-5 47 17 78 2 4 4 7 7 10 13-15 29-29 47-43 3-24 8-46 14-65-7-1-15-2-22-2m-34-27c-12 0-21 10-21 21 0 12 9 22 21 22 12 0 21-10 21-22 0 0 0 0 0 0l0 0c0 0 0-1 0-1 0 0 0 0 0 0-1-11-10-20-21-20m-13 167c-22 31-28 60-18 78 9 16 31 24 60 24 5 0 11 0 17-1 3 0 7-1 10-1-6-20-11-42-14-65-18-14-34-29-47-44-3 3-5 6-8 9m198 66c-11 6-22 12-33 17 17 7 34 12 50 16 6-16 10-34 13-52-10 6-20 13-30 19m-128-20c3 18 7 36 12 51 16-3 33-8 50-14-11-6-22-11-33-18-10-6-20-12-29-19m-17-100c-14 11-26 23-37 34 11 13 23 25 37 36-1-11-1-23-1-34 0-13 0-25 1-36m80-66c-17-7-34-12-50-16-6 16-10 34-13 52 10-6 20-13 30-19 11-6 22-12 33-17m95 37c-3-18-7-36-12-51-16 3-33 8-50 14 11 6 22 12 33 18 10 6 20 13 29 19m17 100c14-11 26-23 36-34-10-13-22-25-36-36 1 11 1 23 1 35 0 12 0 24-1 35m-12-35c0-16-1-32-2-47-12-9-25-18-39-26-14-8-28-15-42-22-15 6-29 13-43 22-14 8-27 16-39 25-2 16-3 31-3 48 0 15 1 31 2 46 12 9 25 18 39 26 14 8 28 16 42 22 15-6 29-13 43-22 14-8 27-16 39-26 2-15 3-30 3-46m-134 154c4-2 8-3 12-3 19 0 34 16 34 35 0 2 0 4 0 6 1 0 3 0 4 0 24 0 46-24 61-63-19-4-40-11-62-20-21 8-41 15-61 19 3 9 8 18 12 26m12 53c12 0 21-9 21-21 0-12-9-21-21-21-12 0-21 9-21 21 0 12 9 21 21 21m235-142c0-12-9-21-21-21-12 0-21 9-21 21 0 12 9 21 21 21 12 0 21-9 21-21m-21-34c19 0 34 15 34 34 0 18-13 33-31 34-1 2-1 5-2 7-16 26-54 34-102 26-18 45-44 73-75 73-3 0-6 0-9-1-6 10-17 16-29 16-19 0-35-15-35-34 0-10 5-19 12-26-5-9-10-19-14-30-5 1-10 2-14 2-44 5-76-6-89-29-14-24-7-56 19-92 3-4 6-9 9-13-3-4-6-8-9-12-25-37-31-69-17-92 2-4 4-7 8-10-2-4-2-8-2-12 0-19 15-34 34-34 16 0 30 11 33 26 9 1 18 2 28 3 18-45 44-73 75-73 31 0 58 29 76 75 4-1 9-2 13-2 7-1 13-1 19-1 34 0 59 10 70 30 16 27 4 66-28 105 8 10 15 20 20 30 2 0 4 0 6 0"/>
<glyph glyph-name="beakers-1" unicode="&#98;" d="M437 64c-2-4-6-7-11-7l-356 0c-5 0-9 3-11 7-3 4-2 9 0 13l103 154 172 0 103-154c2-4 3-9 0-13z m-243 214c1 1 2 3 2 4 1 2 1 4 1 5l0 138c0 0 0 1 0 1 0 0 0 0 0 0 0 4-3 7-8 7l-7 0 0 9c0 3 1 7 3 9 3 2 6 4 10 4l107 0c3 0 6-2 9-4 2-2 3-6 3-9l0-9-7 0c-4 0-8-3-8-7l0-139c0-1 1-3 1-5 1-1 1-3 2-4l22-33-152 0z m255-193l-135 201 0 1 0 132 8 0c4 0 7 3 7 7l0 16c0 7-3 14-8 19-5 5-12 8-19 8l-107 0c-8 0-15-3-20-8-5-5-8-12-8-19l0-16c0-4 3-7 7-7l8 0 0-132-135-202c-5-8-6-19-1-28 5-9 14-14 24-14l356 0c10 0 19 5 24 14 5 9 4 20-1 28z m-249 88c-15 0-27-12-27-27 0-15 12-27 27-27 15 0 27 12 27 27 0 15-12 27-27 27m88-34c-12 0-21 10-21 21 0 12 9 22 21 22 12 0 22-10 22-22 0-11-10-21-22-21m0 58c-20 0-36-17-36-37 0-19 16-36 36-36 20 0 36 17 36 36 0 20-16 37-36 37m-50-88c-10 0-19-9-19-19 0-10 9-19 19-19 10 0 19 9 19 19 0 10-9 19-19 19"/>
<glyph glyph-name="beakers-2" unicode="&#99;" d="M431 61c-2-3-5-6-9-6l-300 0c-4 0-8 3-10 6-1 4-1 8 1 11l87 129 144 0 87-129c2-3 2-7 0-11z m-322 46l0 209 58 0 0-141-55-82c-2 4-3 8-3 14z m-11 342c0 2 1 4 2 5 2 2 4 3 6 3l64 0c2 0 4-1 5-3 2-1 3-3 3-5l0-5-5 0c-3 0-6-3-6-7 0 0 0 0 0 0 0 0 0 0 0 0l0-108-58 0 0 108c0 4-3 7-6 7l-5 0z m128-208c1 1 2 3 2 4 1 1 1 3 1 4l0 117c0 4-3 7-7 7l-6 0 0 7c0 2 1 5 3 7 2 2 5 3 8 3l90 0c3 0 6-1 8-3 2-2 3-5 3-7l0-7-7 0c-3 0-6-3-6-7 0 0 0 0 0 0 0 0 0 0 0 0l0-117c0-1 0-3 1-4 0-1 1-3 1-4l19-27-128 0z m215-162l-113 169 0 1 0 111 6 0c4 0 6 3 6 6l0 14c0 6-2 12-6 16-5 5-11 7-17 7l-90 0c-7 0-12-2-17-7-4-4-7-10-7-16l0-14c0-3 3-6 7-6l6 0 0-111-37-54 0 236 5 0c3 0 6 3 6 6l0 12c0 5-2 10-6 14-4 4-9 6-14 6l-64 0c-5 0-11-2-15-6-3-4-6-9-6-14l0-12c0-3 3-6 7-6l4 0 0-324c0-10 3-18 8-25l-2-3c-4-7-5-16-1-24 4-8 12-12 21-12l300 0c9 0 17 4 21 12 4 8 3 17-2 24z m-128 74c-13 0-24-10-24-23 0-13 11-23 24-23 12 0 23 10 23 23 0 13-11 23-23 23m-75-29c-10 0-18 8-18 18 0 10 8 18 18 18 10 0 18-8 18-18 0-10-8-18-18-18m0 49c-17 0-31-14-31-31 0-17 14-31 31-31 17 0 31 14 31 31 0 17-14 31-31 31m42-74c-9 0-16-7-16-16 0-9 7-17 16-17 9 0 17 8 17 17 0 9-8 16-17 16"/>
<glyph glyph-name="beakers-3" unicode="&#100;" d="M152 150c0 10-8 18-18 18-9 0-17-8-17-18 0-9 8-17 17-17 10 0 18 8 18 17m33-4c-6 0-12 6-12 13 0 7 6 12 12 12 7 0 13-5 13-12 0-7-6-13-13-13m0 36c-12 0-23-10-23-23 0-13 11-23 23-23 13 0 24 10 24 23 0 13-11 23-24 23m-29-51c-7 0-12-6-12-13 0-7 5-13 12-13 7 0 13 6 13 13 0 7-6 13-13 13m223-35c-41 0-75 31-79 72l158 0c-4-41-38-72-79-72z m-99 18c0 1 0 1-1 2l-26 38 0 98 47 0 0-34c-7-13-11-27-11-43 0-15 4-29 10-42-1-10-9-18-19-19z m-9-10c-2-2-4-4-6-4l-205 0c-3 0-5 2-6 4-1 2-1 4 0 6l59 88 98 0 59-88c1-1 1-1 1-3 0-1 0-2 0-3z m-139 122c1 1 1 2 1 3 1 1 1 2 1 3l0 86c0 1 0 1 0 1 0 0 0 0 0 0 0 3-3 5-6 5l-3 0 0 4c0 2 1 3 2 5 1 1 3 1 4 1l62 0c2 0 3 0 5-2 1-1 1-2 1-4l0-4-3 0c-3 0-5-2-5-5l0-87c0-1 0-2 0-3 1-1 1-2 2-3l11-17-83 0z m113 184c0 1 0 3 2 4 1 1 2 2 4 2l51 0c2 0 3-1 5-2 1-1 2-3 2-4l0-4-4 0c0 0 0 0 0 0-3 0-5-2-5-5l0-87c0 0 0 0 0 0l0-51-47 0 0 51c0 0 0 0 0 0l0 86c0 0 0 0 0 0 0 0 0 1 0 1 0 3-2 5-5 5l-3 0z m109-159c2 1 3 2 4 5l0 88c0 0 0 0 0 0 0 0 0 0 0 0 0 3-3 6-6 6l-2 0 0 2c0 2 0 3 1 4 1 1 3 1 4 1l49 0c1 0 2 0 3-1 1-1 1-2 1-4l0-2-2 0c-3 0-5-3-5-6 0 0 0 0 0 0 0 0 0 0 0 0l0-88c0-2 2-5 4-5 31-11 52-40 53-73l-158 0c1 33 22 62 54 73z m57 9l0 79 3 0c3 0 5 2 5 5l0 8c0 4-2 8-5 11-2 3-6 5-10 5l-49 0c-4 0-8-2-11-5-3-3-5-7-5-11l0-8c0-3 3-5 6-5l2 0 0-79c-15-6-27-15-37-26l0 108c0 0 0 0 0 0l0 53 4 0c3 0 5 3 5 6l0 9c0 4-2 9-5 12-3 3-7 5-12 5l-51 0c-5 0-9-2-12-5-3-3-5-8-5-12l0-9c0-3 2-6 5-6l4 0 0-53c0 0 0 0 0 0l0-172-42 62 0 82 4 0c3 0 5 2 5 5l0 9c0 5-2 9-5 12-3 3-7 5-12 5l-62 0c-4 0-8-2-12-5-3-3-5-7-5-12l0-9c0-3 3-5 6-5l3 0 0-82-77-116c-4-5-4-12-1-17 3-6 8-9 15-9l205 0c6 0 12 3 15 9 1 1 1 3 1 4 12 2 21 9 26 19 17-22 43-37 72-37 50 0 90 41 90 90 0 38-22 71-58 85z m3-113c-10 0-18-8-18-18 0-9 8-17 18-17 9 0 17 8 17 17 0 10-8 18-17 18m-31 12c-7 0-13-5-13-12 0-7 6-13 13-13 7 0 12 6 12 13 0 7-5 12-12 12"/>
<glyph glyph-name="book-closed" unicode="&#101;" d="M248 69c-10 17 6 39 11 45 1 1 1 1 2 1l179 88 15-34z m-187 210l185-161c-6-8-14-23-14-37l-170 158c-13 14-6 31-1 40z m159 155l184-164-152-141-183 160z m212-221l-152-75 116 107z m37-44l-21 45c0 0 0 1-1 2 0 0 0 0 0 0l-42 38 13 11c1 1 2 3 2 5 0 2-1 3-3 4l-193 172c-3 3-6 3-8 0l-161-153c0 0-1-1-1-2-10-14-19-40-1-61l187-173c1-1 3-2 4-2 2 0 3 0 4 1 0 0 0 0 1 0l217 105c3 1 4 5 3 8z m-281 80l-47 42 83 77 48-41z m99 78c0 2-1 4-2 5l-57 49c-3 2-6 2-9 0l-91-86c-2-1-2-3-2-5 0-1 0-3 2-4l57-50c1-1 2-2 4-2 1 0 3 1 4 2l92 87c1 1 2 3 2 4z"/>
<glyph glyph-name="book-opened" unicode="&#102;" d="M247 111l-187 0c7 7 15 13 25 17 26 14 55 15 80 14 39-2 66-12 82-31z m-108 303c25 0 54 0 81-14 11-6 22-14 30-24 0 0 1 0 1 0 0-1 0-1 1-2l0-249c-19 18-48 28-87 29-26 1-57 0-86-14-9-5-16-10-24-16l0 257c17 21 44 31 84 33z m316-303l-187 0c7 7 15 13 25 17 26 14 55 15 80 14 39-2 66-12 82-31z m-162 287c26 13 55 14 80 13 40-1 67-12 84-32l0-251c-19 16-47 25-84 26-26 1-58 0-86-14-8-4-16-9-22-15l0 252c7 8 17 15 28 21z m176-17c0 1 0 3-1 4-19 25-50 37-95 39-26 1-58 0-86-15-11-6-21-13-30-22-9 10-19 18-32 25-28 14-60 15-86 14-45-1-76-14-95-39-1-1-1-2-1-4l0-276c0-3 1-5 3-6 1-2 3-3 5-3l412 0c3 0 6 3 6 6 0 1 0 2 0 2 0 1 0 2 0 2z m-331-48l28-22 29 22 25-19 8 10-33 25-29-22-28 22-29-22-25 19-8-10 33-25z m0-59l28-21 29 21 25-18 8 10-33 24-29-21-28 21-29-21-25 19-8-11 33-24z m0-60l28-22 29 22 25-19 8 10-33 25-29-22-28 22-29-22-25 19-8-10 33-25z m208 119l28-22 29 22 25-19 8 10-33 25-29-22-28 22-29-22-25 19-8-10 33-25z m0-59l28-21 29 21 25-18 8 10-33 24-29-21-28 21-29-21-25 19-8-11 33-24z m0-60l28-22 29 22 25-19 8 10-33 25-29-22-28 22-29-22-25 19-8-10 33-25z"/>
<glyph glyph-name="books-with-graduation-cap" unicode="&#103;" d="M417 68c0-7-6-12-12-12l-295 0c-6 0-11 5-11 12l0 60c0 7 5 12 11 12l295 0c6 0 12-5 12-12z m-12 85l-295 0c-13 0-25-11-25-25l0-60c0-14 12-25 25-25l295 0c14 0 25 11 25 25l0 60c0 14-11 25-25 25z m-260-21c-4 0-7-3-7-7l0-54c0-4 3-7 7-7 4 0 7 3 7 7l0 54c0 4-3 7-7 7m199 0c-3 0-6-3-6-7l0-54c0-4 3-7 6-7 4 0 7 3 7 7l0 54c0 4-3 7-7 7m26 0c-4 0-7-3-7-7l0-54c0-4 3-7 7-7 3 0 6 3 6 7l0 54c0 4-3 7-6 7m22 116l0-60c0-7-5-12-11-12l-246 0c-7 0-12 5-12 12l0 60c0 6 5 12 12 12l246 0c6 0 11-6 11-12z m-257 25c-14 0-25-11-25-25l0-60c0-14 11-26 25-26l246 0c14 0 25 12 25 26l0 60c0 14-11 25-25 25z m34-21c-3 0-6-3-6-7l0-55c0-3 3-6 6-6 4 0 7 3 7 6l0 55c0 4-3 7-7 7m151 0c-4 0-7-3-7-7l0-55c0-3 3-6 7-6 4 0 7 3 7 6l0 55c0 4-3 7-7 7m25 0c-3 0-6-3-6-7l0-55c0-3 3-6 6-6 4 0 7 3 7 6l0 55c0 4-3 7-7 7m-94 203l121-45-7-3-9-3 3-7 0 0 0-1 0 1-3 7-105-40-122 46z m115-132c-5 0-8 3-8 8 0 4 3 8 8 8 4 0 8-4 8-8 0-5-4-8-8-8z m-43-1c-20-19-46-29-74-29-27 0-54 10-74 29l0 56 73-28c1 0 2 0 3 0 1 0 1 0 2 0l70 27z m-215 81l54-20 0-62c0-3 1-6 4-8 22-22 52-33 83-33 31 0 61 11 84 33 2 2 4 5 4 8l0 61 22 8 0-39c-8-3-15-11-15-20 0-12 10-22 22-22 12 0 22 10 22 22 0 9-7 17-15 20l0 44 21 8c2 1 4 4 4 7 0 2-2 5-4 6l-141 53c-1 0-3 0-5 0l-140-53c-3-1-4-4-4-6 0-3 1-6 4-7z"/>
<glyph glyph-name="bookshelf" unicode="&#104;" d="M87 392c-6 0-11-5-11-11l0-219c0-6 5-11 11-11l54 0c6 0 11 5 11 11l0 219c0 6-5 11-11 11z m54-252l-54 0c-12 0-22 10-22 22l0 219c0 12 10 22 22 22l54 0c12 0 22-10 22-22l0-219c0-12-10-22-22-22z m-3 204l-48 0c-3 0-6 3-6 6 0 3 3 5 6 5l48 0c3 0 6-2 6-5 0-3-3-6-6-6m0-134l-48 0c-3 0-6 3-6 6 0 3 3 5 6 5l48 0c3 0 6-2 6-5 0-3-3-6-6-6m0-22l-48 0c-3 0-6 2-6 5 0 3 3 6 6 6l48 0c3 0 6-3 6-6 0-3-3-5-6-5m56 204c-6 0-11-5-11-11l0-219c0-6 5-11 11-11l53 0c6 0 11 5 11 11l0 219c0 6-5 11-11 11z m53-252l-53 0c-12 0-22 10-22 22l0 219c0 12 10 22 22 22l53 0c13 0 22-10 22-22l0-219c0-12-9-22-22-22z m-2 204l-49 0c-3 0-5 3-5 6 0 3 2 5 5 5l49 0c3 0 5-2 5-5 0-3-2-6-5-6m0-134l-49 0c-3 0-5 3-5 6 0 3 2 5 5 5l49 0c3 0 5-2 5-5 0-3-2-6-5-6m0-22l-49 0c-3 0-5 2-5 5 0 3 2 6 5 6l49 0c3 0 5-3 5-6 0-3-2-5-5-5m99 206c-1 0-2 0-4 0l-50-18c-3-1-5-3-6-6-2-3-2-5-1-8l73-207c1-2 3-4 6-6 3-1 6-1 8 0l51 18c3 1 5 3 6 5 1 3 1 6 1 9l-74 206c-1 4-5 7-10 7m23-257c-4 0-7 1-10 2-5 3-9 7-11 13l-73 206c-2 6-2 12 1 17 2 5 7 9 12 11l51 18c11 4 24-2 28-13l73-207c2-5 2-11-1-16-2-6-7-10-12-12l-51-18c-2 0-5-1-7-1m-61 195c-2 0-4 1-5 3-1 3 0 6 3 7l46 17c3 1 6-1 7-4 1-3 0-6-3-7l-46-16c-1 0-1 0-2 0m45-127c-2 0-4 2-5 4-1 3 0 6 3 7l46 16c3 1 6 0 7-3 1-3-1-6-3-7l-46-16c-1-1-1-1-2-1m8-21c-3 0-5 1-6 4-1 3 1 6 4 7l45 16c3 1 6 0 7-3 1-3 0-6-3-7l-46-17c0 0-1 0-1 0m105-64l-416 0c-3 0-5 3-5 6 0 3 2 6 5 6l416 0c3 0 5-3 5-6 0-3-2-6-5-6"/>
<glyph glyph-name="briefcase" unicode="&#105;" d="M455 266c-3-1-9-4-18-7-3-1-7-2-11-3-1 0-2-1-3-1-3-1-6-2-9-2-2-1-4-1-5-2-3-1-6-1-9-2-2-1-5-1-7-2-3 0-6-1-9-2-3 0-5-1-8-1-3-1-6-1-10-2-3-1-5-1-8-2-4 0-8-1-11-1-3-1-7-1-10-2-4 0-8-1-12-1-3-1-7-1-10-1-3-1-6-1-9-1l0 17c0 4-3 7-7 7l-80 0c-4 0-7-3-7-7l0-18c-3 0-6 1-9 1-3 1-7 1-11 1-4 1-8 2-12 2-3 1-7 1-10 2-4 1-8 2-11 2-3 1-6 1-9 2-4 1-7 2-11 3-2 0-5 1-7 2-4 1-8 2-11 3-2 0-4 1-6 2-4 1-7 2-10 3-2 0-3 1-5 1-3 2-7 3-10 4-1 1-2 1-3 1-3 2-6 3-9 4-1 1-2 1-2 1-9 4-16 8-19 10l0 47c0 27 23 50 50 50l298 0c27 0 50-23 50-50z m-163-40l0-30-65 0 0 48 65 0z m140-117c0-28-23-51-50-51l-252 0c-28 0-50 23-50 51l0 141c0 0 0 0 1 0 1-1 3-2 4-2 3-1 6-2 9-3 1-1 3-2 5-2 3-1 6-2 9-3 2-1 4-2 6-2 4-1 7-2 11-3 2-1 4-1 6-2 4-1 8-2 12-3 3 0 5-1 7-1 6-2 11-3 17-4 1 0 2 0 3-1 7-1 15-2 22-3 2 0 5 0 7-1 4 0 9-1 13-1l0-30c0-4 3-7 7-7l80 0c4 0 7 3 7 7l0 30c4 1 8 1 12 2 3 0 5 0 7 0 8 1 15 2 21 3 1 0 2 0 3 1 6 0 11 1 16 2 3 1 5 1 7 1 4 1 8 2 11 3 2 0 5 1 7 1 3 1 6 1 9 2 2 1 4 1 6 2 3 0 6 1 9 2 2 0 3 1 5 1 3 1 5 2 8 2 1 1 3 1 4 2 1 0 1 0 1 0z m-246 296c0 8 3 15 8 20 5 6 13 9 20 9l76 0c8 0 15-3 20-9 5-5 8-12 8-20l0-17-132 0z m219-17l-72 0 0 17c0 12-5 23-13 31-8 8-19 12-30 12l-76 0c-11 0-22-4-30-12-8-8-12-19-12-31l0-17-65 0c-35 0-64-29-64-64l0-51c0-3 1-5 3-6 0-1 7-5 20-11l0-147c0-36 29-65 64-65l252 0c35 0 64 29 64 65l0 139c23 7 23 9 23 14l0 62c0 35-29 64-64 64z"/>
<glyph glyph-name="chemistry-1" unicode="&#106;" d="M368 219l-87 0-42 73c0 0 0 0 0 0l43 75 86 0 43-74z m-140-80l-86 0-43 74c0 0 0 0 0 0l43 74 86 0 42-74z m235 162l-43 0-42 73 26 42c1 3 1 7-2 8-3 2-7 1-8-2l-26-43-86 0-25 45c-1 2-5 4-8 2-3-2-4-5-2-8l25-45-43-74-87 0-24 40c-1 3-5 4-8 3-3-2-3-6-2-9l24-39-43-74-40 0c-4 0-6-3-6-6 0-3 2-6 6-6l39 0 44-77-23-44c-1-3 0-6 3-8 1 0 2-1 3-1 2 0 4 1 5 3l23 45c0 0 0 0 0 1l86 0 26-45c1-2 3-3 5-3 1 0 2 0 3 1 3 1 4 5 2 8l-26 46 42 73 88 0 23-43c1-2 3-4 5-4 1 0 2 1 3 1 2 2 4 5 2 8l-23 44 44 77 40 0c4 0 6 2 6 5 0 4-2 6-6 6z"/>
<glyph glyph-name="chemistry-2" unicode="&#107;" d="M101 469l-58-101 58-102 118 0 59 102-59 101z m195-111l-58-100 58-100 116 0 57 100-57 100z m-41-100l49 85 99 0 49-85-49-86-99 0z m-153-8l-57-100 57-100 116 0 58 100-58 100z m-40-100l49 85 99 0 49-85-49-86-99 0z m169-5c-3 0-5 1-7 4l-33 54c-2 3-1 8 3 10 3 2 8 1 10-3l33-54c2-3 1-8-2-10-2-1-3-1-4-1m199 122l-33 54c-3 4-7 5-11 3-3-2-4-7-2-10l31-51-30-53c-2-3-1-8 2-10 2 0 3-1 4-1 3 0 5 2 6 4l32 55c0 0 0 1 0 1 2 2 2 6 1 8m-245 181l0 0-64 0c-3 0-6-2-7-5 0 0 0 0 0-1l-31-55c-2-4 0-8 3-10 1-1 3-1 4-1 2 0 5 1 6 4l29 53 60 0c4 0 7 4 7 8 0 4-3 7-7 7"/>
<glyph glyph-name="dna" unicode="&#108;" d="M332 330c-1 1-1 1-1 1 0 0 0 0-1 1-24 42-24 73-18 94l114-114c-21-6-52-6-94 18m8-105l-115 115c21 8 53 9 97-17 0 0 1 0 1 0 0 0 0-1 0-1 26-44 25-76 17-97m-19-30c-1-1-2-2-2-2-1-1-2-1-2-2-1-1-6-7-15-12l-123 123c6 10 12 15 13 15 0 1 1 1 1 2 1 0 1 1 2 1 0 1 6 8 18 15l122-122c-6-12-13-18-14-18m-131-6c0 0-1 0-1 0 0 0 0 1 0 1-28 47-25 80-16 101l118-118c-20-9-54-12-101 16m9-106l-116 116c21 7 53 8 97-17 1-1 1-1 1-1 0 0 0 0 1-1 25-44 24-77 17-97m268 251c-3 2-7 1-9-1 0-1-6-9-20-16l-121 121c7 13 15 20 16 20 2 2 3 6 1 9-2 3-6 3-9 1 0 0-53-42-14-125-83 38-125-15-126-15 0 0 0-1 0-1 0 0 0 0-1 0 0-1-53-43-15-126-83 39-125-14-125-14-2-3-2-7 1-9 1-1 2-1 4-1 2 0 3 1 5 2 0 1 6 8 17 14l122-122c-6-11-13-17-14-17-2-2-3-6-1-9 1-2 3-2 5-2 1 0 3 0 4 1 0 0 53 42 14 125 83-39 125 14 125 14 0 1 1 1 1 1 0 1 1 1 1 1 1 1 54 43 15 126 83-39 125 14 125 14 2 3 2 7-1 9"/>
<glyph glyph-name="emergency-services" unicode="&#109;" d="M184 137c1 0 3 0 4-1 2-2 4-4 4-7l0-64c0-3 2-5 5-5l118 0c3 0 5 2 5 5l0 64c0 3 2 5 4 7 3 1 6 1 8 0l54-32c1-1 3-1 4-1 1 1 3 1 3 3l60 103c1 2 0 6-2 7l-57 34c-2 1-4 4-4 7 0 2 2 5 4 7l57 33c2 2 3 5 2 7l-60 104c0 1-2 2-3 2-1 0-3 0-4-1l-54-32c-2-1-5-1-8 0-2 2-4 4-4 7l0 64c0 3-2 5-5 5l-118 0c-3 0-5-2-5-5l0-64c0-3-2-5-4-7-3-1-6-1-8 0l-54 32c-1 1-3 1-4 1-1 0-2-1-3-2l-60-104c-1-2 0-5 2-7l57-33c2-2 4-5 4-7 0-3-2-6-4-7l-57-34c-2-1-3-5-2-7l60-103c1-2 2-2 3-3 1 0 3 0 4 1l54 32c1 1 2 1 4 1m131-93l-118 0c-12 0-21 9-21 21l0 50-42-25c-5-3-11-4-16-2-6 1-10 5-13 10l-60 103c-5 10-2 23 8 29l45 27-45 26c-10 6-13 19-8 29l60 104c3 4 7 8 13 10 5 1 11 0 16-3l42-25 0 50c0 12 9 21 21 21l118 0c12 0 21-9 21-21l0-50 42 25c5 3 11 4 16 3 6-2 10-6 13-10l60-104c5-10 2-23-8-29l-45-26 45-27c10-6 13-19 8-29l-60-103c-3-5-7-9-13-10-5-2-11-1-16 2l-42 25 0-50c0-12-9-21-21-21"/>
<glyph glyph-name="gavel" unicode="&#110;" d="M454 112c-6-8-18-10-26-4l-189 141c0 0-1 1-1 1l21 30c1-1 2-1 2-2l189-140c4-3 7-8 8-13 0-5-1-9-4-13z m-243 121c-2-2-5-4-7-5l0 1-61 44c0 2 1 5 3 8l53 73c3 4 6 5 8 5l60-43c0-3 0-6-3-9l-12-17c0 0 0 0 0 0l-26-36c0 0 0 0 0 0z m-22-53c-3-4-10-5-14-1l-74 56c-5 3-6 10-3 14l21 27 80-58c0 0 0 0 0-1l12-8z m27 231c2 2 4 4 7 4 3 0 6 0 8-2l74-56c3-2 4-5 5-7 0-3-1-6-2-8 0 0 0 0 0 0l-21-27-12 9c0 0 0 0 0 0l-63 46c0 0 0 0 0 0l-17 12z m253-284c1-8-1-16-6-22-5-8-14-12-24-12-6 0-13 2-18 6l-188 141c-1 0-2 1-2 1l-11-14c-1-3-3-4-6-6l8-6c2-1 2-2 3-4 0-1 0-3-1-4l-25-34c-4-5-11-8-18-8-4 0-9 1-13 5l-74 55c-10 8-12 22-5 31l24 32c2 2 5 3 8 1l12-9c1 3 2 6 3 8l54 73c2 3 4 5 6 6l-12 10c-2 0-2 2-3 3 0 2 0 3 1 5l25 33c4 5 9 8 15 9 6 0 12-1 16-5l74-56c5-4 8-9 9-15 1-6-1-11-4-16l-24-31c-1-2-3-3-4-3-2 0-3 1-4 1l-7 6c-1-3-2-6-4-8l-8-11c1 0 2-1 2-1l189-141c7-5 11-12 12-20z m-392 0l0 12 169 0 0-12z m-34-37l0 11 238 0 0-11z"/>
<glyph glyph-name="globe-blank" unicode="&#111;" d="M249 457c83 0 151-68 151-151 0-84-68-151-151-151-83 0-151 67-151 151 0 83 68 151 151 151m0-315c-90 0-164 73-164 164 0 90 74 163 164 163 90 0 164-73 164-163 0-91-74-164-164-164z m192 163c0-100-77-183-176-191l0-33c24-1 41-12 49-30 1-2 0-4-1-6-1-1-3-2-5-2l-98 0c-2 0-4 1-5 2-1 2-1 4 0 6 7 18 24 29 48 30l0 32c-1 0-2 0-4 0-47 0-93 18-129 50l-3-4c-1-1-3-1-5-1-1 0-3 0-4 1-3 3-3 7 0 9l16 16c2 3 6 3 9 0 2-2 2-6 0-9l-4-3c33-30 76-46 120-46 99 0 180 80 180 179 0 42-15 82-41 114l-3-3c-2-1-3-2-5-2-2 0-3 1-4 2-3 2-3 6 0 9l16 16c2 2 6 2 8 0 3-3 3-7 0-9l-3-4c28-34 44-78 44-123z"/>
<glyph glyph-name="globe-lines" unicode="&#112;" d="M98 304c0 3 0 7 0 10 15-3 30-8 44-14-7-12-12-24-16-35-5-14-7-27-7-39-14 23-21 50-21 78z m230 132c-21 0-46-8-72-23-7 14-12 29-15 43 3 0 7 1 10 1 27 0 53-7 77-21z m76-132c0-4 0-7-1-10-14 3-28 8-43 14 15 27 23 52 23 73 14-23 21-50 21-77z m-230-132c0 0 0 0 0 0 12 0 24 2 38 7 12 4 23 9 35 16 7-15 12-29 14-44-30-2-60 5-87 21z m22 178l101-102c-14-14-30-26-45-36-11 19-24 37-40 53-16 16-34 29-53 40 10 15 23 30 37 45z m-9 9c-15-16-28-32-39-49-16 8-32 14-48 17 4 30 18 58 38 80z m9 9l-49 48c24 22 52 35 81 39 3-16 9-32 17-48-17-11-33-24-49-39z m119-120c16 16 29 33 39 50 16-8 32-14 48-17-4-30-18-58-39-81z m39-57c-23-21-51-34-80-38-3 16-9 32-16 48 16 11 33 24 48 39z m-64 152c16-16 34-29 53-39-10-16-22-32-37-47l-101 102c15 14 30 27 46 36 10-18 23-36 39-52z m69 69c0 0 0 0 0 0 18-19 13-57-10-98-18 10-34 23-50 38-15 15-28 32-37 50 24 13 47 21 66 21 13 0 23-3 31-11 0 0 0 0 0 0z m-221-151c4 11 9 22 15 33 18-10 35-23 50-38 15-16 28-33 38-50-11-6-22-12-33-15-28-10-51-9-65 4 0 0 0 0 0 0-1 1-1 1-1 1-12 13-14 36-4 65z m-4-74c-1 0-1 0-1 1-64 64-64 169 1 233 64 64 169 64 234 0 0 0 0 0 0 0 0 0 0 0 0-1 65-64 65-169 0-233-32-33-75-49-117-49-42 0-84 16-117 48 0 0 0 0 0 1z m307 117c0-100-77-182-175-190l0-33c23-1 40-12 48-30 1-2 1-4 0-6-2-1-4-2-6-2l-97 0c-2 0-4 1-5 2-1 2-2 4-1 6 8 18 25 29 48 30l0 32c-1 0-2 0-3 0-48 0-93 18-128 49l-4-3c-1-1-3-2-4-2-2 0-4 1-5 2-2 2-2 6 0 9l16 16c2 2 6 2 9 0 2-3 2-7 0-9l-3-4c32-29 75-46 119-46 98 0 178 81 178 179 0 41-14 81-40 113l-4-3c-1-1-2-2-4-2-2 0-3 1-4 2-3 3-3 7 0 9l15 16c3 2 7 2 9 0 3-3 3-7 0-9l-3-4c28-34 44-77 44-122z"/>
<glyph glyph-name="globe-map" unicode="&#113;" d="M108 359c0 0 0-1 0-2 1-5 7-20 9-23 1-1 2-3 3-8 1-4 3-9 6-12 6-4 21-10 28-12 0 0 1 0 1 0-1 1-2 2-2 4 1 3 0 6-2 9-2 5-4 13 3 22 4 5 8 11 12 18 3 4 6 9 9 13 10 15 21 28 33 39 1 0 1 0 2 1 2 1 5 1 9 1 2 0 4-1 5 0 0 0-1 2-2 3-1 1-2 4-1 6 2 6 0 17-6 29 0 2 0 4 1 6 0 0 0 0 0 0-50-11-91-47-108-94z m158 91c0-9 1-13 7-15 5-2 7-3 9-4 2-2 4-2 9-1 4 1 7 2 9 1 2 0 3-1 5-2 1-2 1-4 0-6-3-8-12-22-17-27 0-1-1-2-2-3-2-2-6-6-5-8 0-1 3-2 4-2 6-2 8 0 11 1 2 1 4 2 7 3 2 1 4 1 5 2 1 2 3 2 5 2 2-1 4-2 5-4 0-1 1-3 7-4 5-1 8-2 10-3 3-1 5-2 8-1 2 0 4 2 6 3 1 1 3 1 4 2 2 1 5 1 7-1 0-1 4-4 5-7 1-2 0-6-2-7-2-1-3-2-5-2-6-2-9-3-11-4-5-2-7-2-15-1-6 0-11 3-16 5-6 3-10 4-14 3l-1 0c0-1-4-3-9-2-3 0-4-1-7-7l-1-1c0-2-2-3-5-5-3-3-6-5-6-9l0-2c1-8 2-29 8-34 7-6 19-7 24-5 1 0 3 1 6 1 8 0 19-2 19-2 2 0 3-1 4-3 3-5 11-22 12-28 1-1 2-4 4-6 3-4 6-9 4-14-2-5-4-13-3-15 4-1 14 11 17 18 1 4 2 9 3 14 2 9 4 19 7 25l2 3c3 4 6 9 9 14 1 1 1 2 2 2 0 1 2 3 3 5 2 2 3 4 4 6-9 69-64 123-133 131 1-1 1-3 1-4z m-165-112c-2-11-3-21-3-32 0-61 37-114 89-137l0 1c-1 3-3 6-4 10-4 9-8 18-9 26 0 3 0 6 1 9 0 8 0 12-5 16-18 13-26 29-27 40 0 0 0 11 2 21-8 2-21 7-27 13-6 5-8 13-10 18 0 1 0 2-1 3-2 2-4 7-6 12z m101-175c2-1 4-1 6-2 0 4 0 11-1 16 0 9 2 11 9 15 2 2 4 3 7 5 10 7 22 39 27 54 2 4 3 7 3 8 2 3 3 5 4 6 3 2 4 4 3 7-1 3-2 4-10 4-3 1-6 1-11 2-12 3-22 11-33 21-9 9-24 13-29 9-5-5-12-7-16-8-1-1-3-1-4 0 1-1 2-4 1-6-2-9-2-23-2-23 0-5 6-18 22-29 11-9 10-19 9-28 0-2 0-5 0-7 0-6 4-14 7-22 2-4 4-8 5-11l1-3c1-3 2-6 2-8z m19-5c9-2 18-2 28-2 82 0 149 66 150 148-3-5-6-10-8-13l-2-3c-2-3-4-13-5-20-1-6-3-12-4-16-2-6-15-27-28-27-1 0-3 0-4 0-3 1-6 4-8 7-4 8 0 19 2 24-1 2-2 3-3 4-2 3-4 6-5 10-1 4-6 16-9 22-6 1-15 1-17 1-7-3-24-2-35 7-8 7-11 22-12 43l0 2c-1 11 7 17 11 20 0 0 1 1 1 1l1 1c0 1 1 3 3 6-5 2-7 6-8 9-3 9 4 15 8 20l2 2c2 3 6 8 9 13-6-1-9 1-13 3-1 1-2 2-5 2-14 5-16 16-16 24-8 0-16 0-24-1 3-8 6-19 4-28 1-3 3-7 2-12l0-2c-1-1-2-3-3-3l-2-2c-4-3-8-2-12-2-2 0-3 0-4 0-10-10-20-22-30-35-3-5-6-9-8-13-4-6-8-13-13-19-3-4-2-5-1-10 1-1 1-3 2-5 2 1 3 2 4 3 10 9 32 5 46-8 9-9 18-16 27-18 4-1 7-2 10-2 6-1 17-2 20-14 3-10-3-16-5-19-1-1-2-1-2-2-1-1-2-4-3-7-11-32-21-53-31-60-4-3-6-4-8-5-1-1-2-2-3-2 0-1 0-1 0-2 0-7 1-15 1-19z m28-15c-90 0-164 73-164 163 0 90 74 163 164 163 90 0 163-73 163-163 0-90-73-163-163-163z m194 163c0-101-78-183-176-192l0-32c23-2 40-12 48-31 1-1 1-4 0-5-2-2-4-3-6-3l-98 0c-2 0-4 1-5 3-1 1-2 4-1 5 8 19 25 29 49 31l0 32c-1 0-2 0-4 0-48 0-94 17-129 50l-4-4c-1-1-3-2-4-2-2 0-4 1-5 2-2 2-2 6 0 9l16 16c3 2 7 2 9 0 3-3 3-7 0-9l-3-3c33-30 76-47 120-47 100 0 180 81 180 180 0 42-14 83-41 115l-3-3c-1-2-3-2-4-2-2 0-4 0-5 2-2 2-2 6 0 9l16 15c3 3 7 3 9 0 3-2 3-6 0-8l-4-4c29-35 45-79 45-124z"/>
<glyph glyph-name="government-capitol" unicode="&#114;" d="M398 82l10 0 0 186-10 0z m-291 0l9 0 0 186-9 0z m208 0l70 0 0 186-70 0z m-22 0l9 0 0 186-9 0z m-67 0l55 0 0 186-55 0z m-97 0l62 0 0 186-62 0z m75 0l9 0 0 186-9 0z m240 186c3 0 6 3 6 7 0 3-3 6-6 6l-374 0c-3 0-6-3-6-6 0-4 3-7 6-7l24 0 0-186-24 0c-3 0-6-3-6-6 0-4 3-7 6-7l374 0c3 0 6 3 6 7 0 3-3 6-6 6l-23 0 0 186z m0-212l-374 0c-3 0-6-3-6-7 0-3 3-6 6-6l374 0c3 0 6 3 6 6 0 4-3 7-6 7m-187 345c51 0 92-41 94-92l-189 0c2 51 44 92 95 92m-187-104l374 0c3 0 6 2 6 6 0 4-3 6-6 6l-80 0c-2 56-46 101-101 104l0 43 27 0c4 0 7 3 7 7 0 3-3 6-7 6l-33 0c-4 0-7-3-7-6l0-50c-55-3-99-48-101-104l-79 0c-3 0-6-2-6-6 0-4 3-6 6-6"/>
<glyph glyph-name="government-supreme-court" unicode="&#115;" d="M393 160l10 0 0 177-10 0z m-271 0l8 0 0 177-8 0z m194 0l65 0 0 177-65 0z m-20 0l8 0 0 177-8 0z m-63 0l51 0 0 177-51 0z m-20 0l8 0 0 177-8 0z m-71 0l59 0 0 177-59 0z m118 254l148-65-293 0z m178-65c3-2 4-4 3-7 0-3-3-5-5-5l-22 0 0-177 10 0c3 0 5-2 5-5 0-4-2-6-5-6l-325 0c-3 0-6 2-6 6 0 3 3 5 6 5l11 0 0 177-22 0c-3 0-5 2-5 5-1 3 0 5 3 7l171 77c2 1 3 1 5 0z m26-243l-416 0c-3 0-5 3-5 6 0 3 2 6 5 6l416 0c3 0 5-3 5-6 0-3-2-6-5-6z m-22 22l-372 0c-3 0-6 3-6 6 0 3 3 6 6 6l372 0c3 0 6-3 6-6 0-3-3-6-6-6z"/>
<glyph glyph-name="graduation-cap" unicode="&#116;" d="M425 292l-12-5-157-59-190 72 190 71 190-71z m17-109c0-8-7-15-16-15-9 0-16 7-16 15 0 9 7 16 16 16 9 0 16-7 16-16z m-76-14c0 0 0 0 0-1-30-28-70-44-112-44-42 0-82 16-113 44 0 1 0 1 0 1l0 89 113-42c1 0 1-1 2-1 1 0 1 1 2 1l108 41z m51 107l3 1 0-66c-13-3-22-14-22-28 0-15 12-28 28-28 15 0 28 13 28 28 0 14-10 25-22 28l0 70 33 13c3 1 4 3 4 6 0 2-1 5-4 5l-207 79c-1 0-3 0-4 0l-207-79c-3 0-4-3-4-5 0-3 1-5 4-6l82-31 0-94c0-3 1-7 4-10 33-30 76-47 121-47 45 0 88 17 120 47 3 3 5 7 5 10l0 92 38 15z"/>
<glyph glyph-name="heart-monitor-1" unicode="&#117;" d="M173 384l-27-147-103 0 0-11 112 0 18 96 33-184 31 133 21-86 20 64 191 0 0 11-199 0-11-34-22 92-29-126z"/>
<glyph glyph-name="heart-monitor-2" unicode="&#118;" d="M241 106l-1-1-2 1c-45 31-106 77-145 128 0 0 0 0 0 0l66 0c3 0 6 2 6 5l14 77 25-138c1-3 3-5 7-5l0 0c3 0 5 2 6 5l22 92 13-55c1-3 3-5 6-5 3 0 6 2 7 5l13 40 124 0c-36-58-108-114-161-149m-177 253c16 35 44 54 77 54 38 0 76-23 93-58l6-11 6 11c5 12 13 22 23 31 20 17 45 28 69 28 34 0 61-20 78-55 14-29 9-60-7-91l-136 0c-3 0-5-2-6-4l-8-23-14 59c-1 3-3 5-6 5l0 0c-3 0-6-2-7-5l-20-89-27 143c0 3-3 5-6 5l0 0c-3 0-6-2-6-5l-20-107-60 0c-3 0-5-2-6-5-28 39-41 80-23 117m399-91l-40 0c16 32 20 66 5 97-19 40-51 62-90 62-27 0-56-12-78-32-8-7-15-15-20-23-22 32-60 55-99 55-38 0-70-22-89-62-47-98 92-211 179-270l9-6 9 6c55 37 131 97 167 160l47 0c3 0 6 3 6 7 0 3-3 6-6 6"/>
<glyph glyph-name="hospital" unicode="&#119;" d="M91 453c-18 0-32-14-32-32l0-330c0-18 14-32 32-32l330 0c18 0 32 14 32 32l0 330c0 18-14 32-32 32z m330-410l-330 0c-26 0-48 22-48 48l0 330c0 26 22 48 48 48l330 0c26 0 48-22 48-48l0-330c0-26-22-48-48-48z m-99 193l-136 0 0-115-46 0 0 263 46 0 0-108 136 0 0 108 46 0 0-263-46 0z"/>
<glyph glyph-name="leaf" unicode="&#120;" d="M118 128c-4-19-8-40-21-54-7-9-21-17-30-15-2 0-5 2-7 9-5 16 5 33 14 45 17 25 37 48 58 69-6-17-10-34-13-50z m330 336c-2 2-4 4-6 4-76 5-160-4-229-27-71-23-120-66-134-119-10-36-7-78 7-116 2-4 6-6 10-5 4 2 6 6 5 11-13 34-15 73-7 106 18 67 93 98 124 108 65 21 144 31 216 26-1-19-9-80-11-90-8-37-19-68-34-94-46-81-153-123-244-96 6 17 13 34 24 50 35 37 72 67 113 88 4 2 5 7 3 11-2 4-7 5-11 3-42-22-81-53-117-92 0 0 0 0 0 0-9-10-18-19-27-29-24-25-49-51-69-81-10-14-23-36-17-59 4-14 13-18 20-20 2 0 4 0 6 0 16 0 32 12 39 20 16 18 20 41 25 62l0 4c2 9 4 18 7 28 20-6 40-9 61-9 81 0 161 42 200 112 16 28 28 60 36 99 0 1 16 97 10 105z"/>
<glyph glyph-name="medical" unicode="&#121;" d="M74 328c-4 0-8-2-11-5-3-3-4-6-4-11l0-112c0-5 1-8 4-11 3-3 7-5 11-5l102 0c4 0 8-4 8-8l0-102c0-4 2-8 5-11 3-3 6-4 11-4l112 0c5 0 8 1 11 4 3 3 5 7 5 11l0 102c0 4 4 8 8 8l102 0c4 0 8 2 11 5 3 3 4 6 4 11l0 112c0 5-1 8-4 11-3 3-7 5-11 5l-102 0c-4 0-8 4-8 8l0 102c0 4-2 8-5 11-3 3-6 4-11 4l-112 0c-5 0-8-1-11-4-3-3-5-7-5-11l0-102c0-4-4-8-8-8z m238-285l-112 0c-9 0-17 3-23 9-6 6-9 14-9 22l0 94-94 0c-8 0-16 3-22 9-6 6-9 14-9 23l0 112c0 9 3 17 9 23 6 6 14 9 22 9l94 0 0 94c0 8 3 16 9 22 6 6 14 9 23 9l112 0c9 0 17-3 23-9 6-6 9-14 9-22l0-94 94 0c8 0 16-3 22-9 6-6 9-14 9-23l0-112c0-9-3-17-9-23-6-6-14-9-22-9l-94 0 0-94c0-8-3-16-9-22-6-6-14-9-23-9z"/>
<glyph glyph-name="medical-kit" unicode="&#122;" d="M412 90l-312 0c-24 0-44 20-44 44l0 92 118 0 0-17c0-4 2-8 5-10 3-3 7-5 11-5l30 0 0-30c0-4 2-8 4-11 3-3 7-5 11-5l42 0c4 0 8 2 11 5 2 3 4 7 4 11l0 30 30 0c5 0 8 2 11 4 3 3 5 7 5 11l0 17 118 0 0-92c0-24-20-44-44-44m-185 118l-37 0c-1 0-1 0-2 0 0 1 0 1 0 1l0 42c0 0 0 1 0 1 1 0 1 0 2 0l37 0c4 0 7 3 7 7l0 37c0 1 0 1 0 2 1 0 1 0 1 0l42 0c0 0 0 0 1 0 0-1 0-1 0-2l0-37c0-4 3-7 7-7l37 0c1 0 1 0 2 0 0 0 0-1 0-1l0-42c0 0 0 0 0-1-1 0-1 0-2 0l-37 0c-4 0-7-3-7-7l0-37c0-1 0-1 0-2 0 0-1 0-1 0l-42 0c0 0 0 0-1 0 0 1 0 1 0 2l0 37c0 4-3 7-7 7m-127 162l312 0c24 0 44-20 44-44l0-86-118 0 0 11c0 4-2 8-5 11-3 2-7 4-11 4l-30 0 0 30c0 5-2 8-4 11-3 3-7 5-11 5l-42 0c-4 0-8-2-11-5-2-3-4-6-4-11l0-30-30 0c-5 0-8-2-11-4-3-3-5-7-5-11l0-11-118 0 0 86c0 24 20 44 44 44m105 57c5 5 11 7 17 7l68 0c6 0 12-2 17-7 4-4 7-11 7-17l0-26-116 0 0 26c0 6 3 13 7 17m207-43l-84 0 0 26c0 10-4 20-11 27-8 7-17 11-27 11l-68 0c-10 0-19-4-27-11-7-7-11-17-11-27l0-26-84 0c-31 0-57-26-57-58l0-192c0-32 26-58 57-58l312 0c31 0 57 26 57 58l0 192c0 32-26 58-57 58"/>
<glyph glyph-name="microscope" unicode="&#65;" d="M98 55c2 10 10 17 20 17l179 0c0 0 0 0 0 0 0 0 0 0 0 0l88 0c9 0 18-7 20-17z m97 30c-5 4-8 9-11 14 14 2 26 10 35 20 7-8 18-12 28-9l102 36c5 2 11 1 16-1 5-2 8-7 10-12 2-5 1-11-1-16-2-4-6-8-12-10l-66-23-100 0c-1 1-1 1-1 1z m-74 76c0 28 23 51 51 51 28 0 51-23 51-51 0-28-23-51-51-51-28 0-51 23-51 51z m-16 137c7 24 25 40 39 49 4 2 9 5 12 7l11-29c-12-9-20-20-24-32-7-22 3-42 12-60 1-3 3-6 4-10-12-2-23-8-32-17-2 4-4 9-6 13-12 27-24 52-16 79z m74 114l26 10 7-18-26-10z m-18 6c-3-1-6-1-9 0-2 1-4 3-5 5 0 2 0 5 1 7 1 2 3 4 6 5l55 21c1 1 3 1 4 1 4 0 8-2 9-6 2-5-1-10-7-12z m122-108c-1 0-2-1-2-1l-82-32-36 95 84 32z m-25-61c-20-7-42 0-53 17l80 32c1 0 1 0 1 0 3-20-8-41-28-49z m127-165l-50 0 31 11c9 3 16 9 19 17 4 8 5 17 2 25-3 9-9 15-17 19-8 4-17 5-25 2l-102-36c-5-1-13 2-15 6l-1 2c5 9 8 20 8 31 0 6 0 11-2 16l124 48c4 1 5 5 4 8-1 3-5 5-8 4l-124-48c-10 21-32 36-57 36 0 0 0 0 0 0-2 5-4 9-6 14-8 17-16 33-11 50 3 10 10 18 17 24l16-42c9-23 31-37 54-37 7 0 14 1 20 4 30 11 45 44 33 74l-39 103c-1 3-5 4-8 3 0 0 0 0-1 0 0 0 0 0 0 0l-24-9-6 17 3 1c12 5 18 17 14 29-4 11-18 16-29 12l-55-21c-6-2-11-6-13-11-3-6-3-12-1-17 2-6 6-10 12-12 2-1 5-2 8-2 3 0 6 1 9 2l3 1 6-18-22-9c-3-1-5-4-3-8l0 0 3-7c-3-2-8-4-15-8-15-11-36-29-44-56-9-32 4-61 17-88 3-6 6-13 8-19-6-10-10-21-10-34 0-34 28-62 62-63 2-5 5-10 9-14l-61 0c-18 0-33-15-33-33l0-2c0-4 3-6 7-6l319 0c4 0 7 2 7 6l0 2c0 18-15 33-33 33z"/>
<glyph glyph-name="molecule" unicode="&#66;" d="M389 221c0 18 15 33 33 33 19 0 34-15 34-33 0-19-15-34-34-34-18 0-33 15-33 34z m-196 30c0 37 30 67 67 67 37 0 67-30 67-67 0-37-30-67-67-67-37 0-67 30-67 67z m-89 184c19 0 34-16 34-34 0-18-15-33-34-33-18 0-33 15-33 33 0 18 15 34 33 34z m238-372c-18 0-33 15-33 34 0 13 7 24 19 29l0-1 7 4c2 1 5 1 7 1 19 0 34-15 34-33 0-19-15-34-34-34z m-252 24c-19 0-34 15-34 34 0 18 15 33 34 33 8 0 16-3 22-8l-2-1 9-11 1 1c2-4 3-9 3-14 0-19-15-34-33-34z m227 348c18 0 33-16 33-34 0-18-15-33-33-33-19 0-34 15-34 33 0 18 15 34 34 34z m61-199l-38 5c1 4 1 7 1 10 0 32-19 60-46 73l3-2 12 33c2-1 5-1 7-1 26 0 47 21 47 47 0 26-21 47-47 47-26 0-47-21-47-47 0-19 11-35 27-43l-12-30c-8 2-16 4-25 4-19 0-37-7-51-18l-66 60c5 8 8 17 8 27 0 26-21 47-47 47-26 0-47-21-47-47 0-26 21-47 47-47 11 0 21 4 30 11l65-61c-12-14-20-33-20-53 0-15 4-29 12-41l-69-56c-8 9-20 14-32 14-26 0-47-21-47-47 0-26 21-47 47-47 26 0 47 21 47 47 0 8-3 16-7 23l69 55c14-18 36-29 61-29 13 0 26 3 37 9l24-41c-15-8-26-23-26-41 0-26 21-47 47-47 26 0 47 21 47 47 0 25-21 47-47 47-3 0-5-1-8-1l-26 43c14 11 25 25 30 42l38-6c0 0-1-1-1-1 0-26 21-47 47-47 26 0 47 21 47 47 0 26-21 47-47 47-20 0-38-14-44-32z"/>
<glyph glyph-name="pen" unicode="&#67;" d="M389 206c-10 0-18 8-18 17 0 10 8 18 18 18 9 0 17-8 17-18 0-9-8-17-17-17z m18 137c-35-34-87-85-101-98-20 20-40 40-60 60l-16 17c14 15 64 65 98 100 17 17 44 17 60 0l19-18c16-17 16-44 0-61z m-336-194l63-63-76-13z m75-56l-68 68 147 147 11-12c19-19 38-38 56-56z m323 223c0 22-20 35-37 44 0 1 0 1-1 1 4 18-1 38-15 52l-18 19c-22 21-57 21-79 0-68-68-103-104-104-107-2-3-1-5 0-8l-154-154c-1-1-2-2-2-3l-16-94c-1-2 0-5 2-6 1-1 3-2 4-2 1 0 1 0 2 0l93 16c2 1 3 1 4 2l154 154c1-1 2-1 4-1 1 0 2 0 3 1 3 1 39 36 107 104 5 4 8 9 10 14 14-8 30-18 30-32 0-7-20-31-58-63-3 1-6 1-9 1-17 0-31-14-31-31 0-17 14-31 31-31 17 0 31 14 31 31 0 9-4 17-10 22 25 22 60 55 59 71z"/>
<glyph glyph-name="pill" unicode="&#68;" d="M425 283l-100-100c-86 51-130 122-142 142l100 100c18 18 42 27 67 27 26 0 52-10 72-30 39-39 40-102 3-139z m-196-196c-37-37-100-36-139 3-19 19-30 44-30 70-1 27 9 51 27 69l84 83c15-27 59-92 142-141z m205 347c-46 46-119 47-163 3l-196-195c-21-22-33-51-32-82 0-31 13-60 35-82 23-24 54-35 84-35 29 0 58 10 80 32l195 195c44 45 43 118-3 164z"/>
<glyph glyph-name="pill-disabled" unicode="&#69;" d="M441 100c-18-37-61-53-97-36l-102 52c14 18 48 66 63 135l105-53c35-17 49-61 31-98m-355 177c9 18 24 32 43 38 8 3 16 5 24 5 11 0 21-3 31-7l108-55c-15-72-51-121-63-135l-111 56c-35 17-50 61-32 98m330-66l-226 115 0 0c-21 10-44 11-66 3-22-8-40-24-51-45-21-44-4-97 39-118l226-115c12-6 24-8 37-8 32 0 64 18 79 50 22 44 5 97-38 118m8 125c-10-19-27-33-48-40-20-6-42-4-61 7-8 4-15 9-21 15l130 94c3-5 5-10 6-15 7-21 4-42-6-61m-94 115c7 3 15 4 23 4 13 0 26-3 38-10 10-5 19-12 25-21l-131-94c-4 6-7 13-9 21-13 42 11 87 54 100m114-50c-15 51-68 79-119 64-50-15-79-68-63-119 12-41 50-68 91-68 9 0 18 2 27 4 51 16 80 69 64 119"/>
<glyph glyph-name="pills" unicode="&#70;" d="M453 141c-2-21-13-39-29-51-15-11-34-16-52-14l-110 17c9 22 28 77 21 148l109-17c36-4 62-36 62-73 0-3 0-7-1-10z m-395 47c0 3 0 7 1 10 1 12 6 24 13 34l0 0c16 23 42 34 68 31l127-20c9-74-13-132-20-148l-127 19c-36 5-62 37-62 74z m279 260c8 4 18 6 27 6 30 0 56-18 68-45 17-38 1-82-36-98l-117-49c-46 58-57 118-59 138z m57-209l-96 15 104 43c44 19 64 72 44 118-14 33-46 54-82 54-11 0-23-2-33-7l-236-98c-44-19-64-72-44-117l0 0 0 0c0-1 0-1 0-1 2-4 4-7 6-10-7-11-12-23-13-36-1-4-1-8-1-12 0-45 32-83 75-89l252-38c4 0 8 0 12 0 18 0 36 6 51 17 20 15 32 36 35 61 1 4 1 8 1 12 0 45-32 83-75 88z"/>
<glyph glyph-name="scales-of-justice" unicode="&#71;" d="M395 194c-29 0-55 22-60 51l7 0c0 0 0 0 0 0 0 0 0 0 0 0l113 0c-5-29-30-51-60-51z m2 187l39-123-84 0z m-323-123l44 122 39-122z m43-64c-30 0-55 22-60 51l8 0c0 0 0 0 0 0 0 0 0 0 0 0l112 0c-5-29-31-51-60-51z m351 62c-2 1-3 2-5 2l-14 0-45 145c-1 3-4 4-6 4-1 0-2 0-2 0 0 0-1 0-1 0l-278 0c-4 0-7-3-7-6 0-1 0-2 1-3l-51-140-11 0c-2 0-3-1-5-2-1-2-1-3-1-5 2-39 35-70 74-70 39 0 71 31 74 70 0 2-1 3-2 5-1 1-3 2-5 2l-14 0-42 136 126 0 0-288-70 0 0-13 152 0 0 13-69 0 0 288 121 0-50-136-10 0c-2 0-4-1-5-2-1-2-2-3-2-5 3-39 35-70 74-70 39 0 72 31 74 70 0 2 0 3-1 5z m-208 200c7 0 12-5 12-11 0-7-5-12-12-12-6 0-11 5-11 12 0 6 5 11 11 11m0-36c14 0 25 11 25 25 0 13-11 24-25 24-13 0-24-11-24-24 0-14 11-25 24-25m-107-360l214 0 0 13-214 0z"/>
<glyph glyph-name="stethoscope" unicode="&#72;" d="M119 144c0 13 10 23 22 23 12 0 22-10 22-23 0-6-3-12-7-16-4-4-10-6-15-6-14 1-23 10-22 22m278 260l0 2c-2 9-4 19-7 28-4 11-13 18-26 21-1 8-8 14-16 14-9 0-16-7-16-16 0-8 7-15 16-15 5 0 10 2 13 6 8-2 15-6 18-14 3-8 5-18 6-27l1-1c8-41 8-76 0-106-12-48-57-68-91-71l-7 0c-34 3-79 23-91 71-8 30-8 65 0 106l0 1c2 9 4 19 7 27 3 7 9 11 16 13 3-3 7-5 12-5 8 0 16 7 16 15 0 9-8 16-16 16-9 0-15-6-16-14-12-4-20-11-23-21-3-9-5-19-7-28l0-2c-9-42-9-79-1-111 14-54 64-77 103-80l1 0c0-6 0-14 0-23 0-14 0-28 0-30 0-36 1-72-32-94-22-14-49-15-72-2-19 10-32 27-37 47 6 1 11 4 16 8 7 7 11 16 11 25 0 19-16 34-34 34-19 0-33-14-34-33-1-17 11-31 29-34 5-24 20-46 43-58 12-7 26-10 40-10 15 0 31 4 44 13 39 26 38 69 38 104 0 2 0 16 0 30 0 9 0 18 0 24 37 4 83 27 97 79 8 32 8 69-1 111m-248-260c0 5-4 9-8 9-5 0-9-4-9-9 0-4 4-8 9-8 4 0 8 4 8 8"/>
<glyph glyph-name="syringe" unicode="&#73;" d="M297 147c0 0 0 0-1 0l-16 17 37 37c3 3 3 8 0 11-3 3-8 3-11 0l-37-37-9 9 23 23c2 3 2 8 0 11-3 3-8 3-11 0l-23-23-6 6 49 49c3 3 3 8 0 11-3 3-8 3-11 0l-49-49-13 13 26 25c2 3 2 8 0 11-3 3-8 3-11 0l-26-26-11 12 40 41c3 3 3 8 0 11-3 3-7 3-10 0l-41-41-58 58 69 70 167-167 3-72z m-155 267l14-15-42-42-15 14z m325-356l-84 84-4 80c-1 2-1 4-3 5l-173 173c0 1 0 1-1 2l-13 13c-3 3-8 3-11 0l-8-8-18 18 32 31c3 3 3 8 0 11-3 3-8 3-11 0l-64-64-26-26c0 0 0 0 0 0l-38-38c-3-3-3-8 0-11 1-1 3-2 5-2 2 0 4 1 6 2l32 33 18-18-8-8c-3-3-3-8 0-11l13-13c1-1 1-1 2-1l173-173c0-1 1-1 1-1 2-3 4-4 7-4l78 0 84-85c2-1 4-2 6-2 2 0 4 1 5 2 3 3 3 8 0 11z"/>
<glyph glyph-name="windmill" unicode="&#74;" d="M378 235c-24-7-57-10-89-10-12 1-23 2-33 3 1 1 3 3 5 5 0 0 0 1 1 1 1 2 2 3 3 5 0 0 1 1 1 2 1 2 2 3 3 5 0 1 1 1 1 1 1 2 1 5 2 7 0 1 1 1 1 2 0 2 1 4 1 6 0 0 0 1 0 2 1 2 1 5 1 7 0 4-1 7-1 11 0 1-1 2-1 3-1 3-1 5-2 8-1 0-1 1-1 2 7 0 14 0 21 0 75-3 123-24 123-38 0-6-10-15-36-22m-178-43c-33-49-71-79-90-83-2 0-5 0-7 1-13 9 1 63 40 120 5 8 11 16 17 24 0-2 1-4 2-6 0-1 1-1 1-2 1-3 3-6 5-9 1 0 1-1 2-2 1-2 3-4 5-5 0-1 1-2 2-3 2-1 4-3 5-4 1-1 2-1 3-2 2-1 5-2 7-3 1-1 2-1 2-1 4-2 7-3 10-3 1 0 2-1 2-1 3 0 5 0 7 0-4-8-9-15-13-21m-72 222c-3 27 2 40 7 42 1 0 2 0 3 0 1 0 3 0 5-1 20-7 52-50 74-99 4-9 7-18 10-27 0 0 0 0 0 0-4 1-7 1-11 1-3 0-6 0-9-1-1 0-1 0-2 0-2-1-4-1-6-2-1 0-2 0-3-1-2 0-3-1-5-2-1 0-2-1-3-1-2-1-3-2-5-3-1-1-1-1-2-2-2-1-4-3-6-5-1 0-1-1-2-2-1-1-2-3-4-4 0-1-1-2-1-3-1-1-2-1-2-2-5 8-9 19-12 26-14 29-23 61-26 86m126-117c0 0 0 0 0 0 5-8 8-17 8-26 0-18-10-34-26-41-6-3-11-4-17-5-1 0-2 0-3 0-25 0-45 19-46 44 0 1 0 2 0 2 0 5 1 10 2 14 7 19 24 32 44 32 7 0 13-1 19-4 8-3 14-9 19-16m37 10c-10 1-19 1-29 0-5 7-12 12-19 16-4 13-9 25-15 38-23 53-57 97-81 106-6 3-12 3-17 1-13-6-18-25-15-55 3-27 13-60 27-91 4-10 12-26 17-36-1-5-2-10-2-15 0 0 0 0 0 0-9-11-17-22-25-34-37-55-61-120-37-137 4-3 8-4 12-4 2 0 4 0 6 1 18 3 43 22 68 49l0-97c0-3 3-6 6-6 4 0 7 3 7 6l0 109c0 1-1 2-1 3 6 7 12 15 18 24 6 9 12 18 17 29 2 0 3 1 5 1l0-166c0-3 3-6 6-6 4 0 7 3 7 6l0 168c13-3 28-4 42-4 4-1 8-1 11-1 30 0 60 4 82 10 30 8 45 20 46 34 0 30-69 49-136 51m-58-36c0-9-8-16-17-16-9 0-17 7-17 16 0 9 8 17 17 17 9 0 17-8 17-17m-46 0c0-16 13-29 29-29 16 0 30 13 30 29 0 16-14 30-30 30-16 0-29-14-29-30"/>
<glyph glyph-name="airplane" unicode="&#75;" d="M352 280l60-157c1-1 0-4-1-5l-11-11c0 0-1 0-1 0l-97 91-2 1c0 0-6 3-13 3-7 0-15-2-22-8l-28-28c-8-8-70-55-112-55-2 0-8 1-11 3 0 1 1 2 2 4l6 6-65 33 10 10c2 1 6 3 8 3l79 0 2 2c22 27 52 58 56 63l9 8 153 154c16 16 71 20 79 13 0 0 1-1 1-1l0 0c5-6 0-26-18-44z m-134-21l-125 57 10 9c2 2 5 3 7 3l167-11-12-11z m247 158c-1 1-3 3-4 4-14 12-76 5-96-15l-76-76-178 11c-6 1-13-2-17-6l-12-12c-2-3-4-6-3-10 1-4 3-7 7-8l122-56-5-5c-4-4-33-34-55-61l-73 0c-6 0-13-3-17-7l-12-11c-2-3-4-7-3-11 0-3 3-6 6-8l52-26c-1-3-2-7 0-10 6-12 22-12 24-12 46 0 111 48 121 58l28 28c8 7 17 5 20 4l96-91c2-2 6-4 9-4 4 0 7 2 10 5l12 11c4 5 6 13 4 19l-58 149 78 78c22 22 30 48 20 62z"/>
<glyph glyph-name="airplane-ticket" unicode="&#76;" d="M459 182c0-3-2-5-5-5l-84 0 0 154 84 0c3 0 5-2 5-5z m-94-5l-270 0c-2 0-5 2-5 5l0 0 0 9c0 0 0 0 0 0l0 0 0 3c0 3-2 5-5 5-3 0-5-2-5-5l0-4c0-7-6-13-13-13-8 0-14 6-14 14l0 126c0 8 6 14 14 14 7 0 13-5 13-12l0-6c0-2 2-5 5-5 3 0 5 3 5 5l0 4 0 0c0 0 0 0 0 0l0 9c0 0 0 0 0 0l0 0c0 3 3 5 5 5l270 0z m89 164l-359 0c-5 0-9-2-12-6-4 4-10 6-16 6-14 0-24-11-24-24l0-126c0-13 10-24 24-24 6 0 12 3 16 7 3-4 7-7 12-7l359 0c9 0 15 7 15 15l0 144c0 9-6 15-15 15z m-369-43c-3 0-5-2-5-5l0-13c0-2 2-5 5-5 3 0 5 3 5 5l0 13c0 3-2 5-5 5m0-33c-3 0-5-2-5-5l0-12c0-3 2-5 5-5 3 0 5 2 5 5l0 12c0 3-2 5-5 5m0-33c-3 0-5-2-5-5l0-12c0-3 2-5 5-5 3 0 5 2 5 5l0 12c0 3-2 5-5 5m305-38l48 0 0 6-48 0z m0 10l48 0 0 1-48 0z m0 7l48 0 0 3-48 0z m0 6l48 0 0 7-48 0z m0 10l48 0 0 3-48 0z m0 6l48 0 0 7-48 0z m0 11l48 0 0 9-48 0z m0 12l48 0 0 1-48 0z m0 6l48 0 0 4-48 0z m0 6l48 0 0 8-48 0z m0 11l48 0 0 1-48 0z m0 8l48 0 0 1-48 0z m0 7l48 0 0 3-48 0z m0 6l48 0 0 6-48 0z m0 8l48 0 0 6-48 0z m-209-36l0 23c0 4-4 8-9 8-5 0-9-4-9-8l0-23-33-20c-1-1-2-3-2-4l0-8c0-1 1-2 3-2l32 7 0-25c0-1 0-1 0-2l-9-10c0 0 0-1 0-2l0-6c0-1 0-1 1-1l16 8c0 0 1 1 1 1 0 0 0-1 1-1l16-8c0 0 1 0 1 1l0 6c0 1 0 2-1 2l-9 10c1 1 1 1 1 2l0 25 32-7c1 0 3 1 3 2l0 8c0 1-1 3-3 4z m77 33c-3 0-5-2-5-5l0-93c0-3 2-5 5-5 3 0 5 2 5 5l0 93c0 3-2 5-5 5m31 0c-3 0-5-2-5-5l0-93c0-3 2-5 5-5 2 0 5 2 5 5l0 93c0 3-3 5-5 5m30 0c-2 0-5-2-5-5l0-93c0-3 3-5 5-5 3 0 5 2 5 5l0 93c0 3-2 5-5 5"/>
<glyph glyph-name="bed" unicode="&#77;" d="M56 242l355 0c15 0 26-12 26-26l0-9-381 0z m122 68l205 0c10-1 20-7 20-19l0-36-225 0z m-68 3c14 0 26-11 26-25 0-14-12-25-26-25-14 0-25 11-25 25 0 14 11 25 25 25z m353-106l-13 0 0 9c0 19-15 36-34 38l0 37c0 17-13 30-32 32l-213 0c-2 0-3-1-4-2-2-1-2-3-2-4l0-62-36 0c12 6 20 19 20 33 0 21-18 38-39 38-21 0-38-17-38-38 0-14 8-27 20-33l-36 0 0 101c0 4-3 7-7 7-3 0-6-3-6-7l0-213c0-4 3-7 6-7 4 0 7 3 7 7l0 51 400 0 0-51c0-4 3-7 7-7 3 0 6 3 6 7l0 58c0 3-3 6-6 6z"/>
<glyph glyph-name="big-ben" unicode="&#78;" d="M287 53l-11 0 0 91-10 0 0-91-11 0 0 91-10 0 0-91-11 0 0 91-11 0 0-91-11 0 0 104 75 0z m-17 325l-41 0 22 60z m4-50l21-45-89 0 22 45z m-47 10l45 0 0 30-45 0z m-25-171l95 0 0 106-95 0z m106 145c0 3-3 5-6 5-2 0-5-2-5-5l0-9-14 31 0 85c0 2-3 5-6 5-2 0-5-3-5-5l0-15-21 65-24-66 0 16c0 2-2 5-5 5-3 0-5-3-5-5l0-90-15-30 0 13c0 3-2 5-5 5-3 0-5-2-5-5l0-155 10 0 0-114 96 0 0 114 10 0z m-72-66c-8-4-14-10-17-19l0 19z m44-19c-3 9-8 15-16 19l16 0z m-16-39c8 4 13 11 16 19l0-19z m-42 29c0 16 12 28 28 28 15 0 28-12 28-28 0-15-13-28-28-28-16 0-28 13-28 28z m-3-10c3-8 9-15 17-19l-17 0z m-10-29l82 0 0 78-82 0z m33 27l9 10 4-4 3 3-4 4 4 5-3 3-5-5-5 5-3-3 5-5-9-10z"/>
<glyph glyph-name="bike" unicode="&#79;" d="M382 137c-40 0-73 33-73 74 0 26 13 49 34 62l33-65 12 6-33 65c8 4 17 6 27 6 41 0 74-33 74-74 0-41-33-74-74-74z m-126 88l-57 99 110 0z m-126-88c-41 0-74 33-74 74 0 41 33 74 74 74 9 0 18-2 26-5l-37-76 84 0c-3-37-35-67-73-67z m73 81l-63 0 28 56c19-12 33-32 35-56z m-15 98l57-98-28 0c-3 29-19 54-43 68z m194-18c-12 0-23-2-34-7l-21 41-1 28c-3 21-26 23-35 24-1 0-2 0-3 0l-3-13c1 0 3 0 5-1 13-1 21-3 22-11l2-22-122 0-9 16 19 0 0 13-54 0 0-13 20 0 12-22-18-39c-10 4-21 6-32 6-48 0-87-39-87-87 0-48 39-87 87-87 46 0 83 35 87 80l43 0 60 112 17-31c-25-15-42-43-42-74 0-48 39-87 87-87 48 0 87 39 87 87 0 48-39 87-87 87z"/>
<glyph glyph-name="brochure" unicode="&#80;" d="M453 77l-115 63 0 309 115-64z m-395 359l121-64 0-309-121 65z m136-64l129 76 0-309-129-75z m270 25l-129 71c-2 2-5 2-8 0l-141-83-132 71c-2 1-5 1-8 0-2-2-3-4-3-7l0-326c0-3 1-5 4-7l136-72c1-1 2-1 3-1 2 0 3 0 4 1l141 83 126-70c2-1 5-1 8 0 2 1 3 4 3 7l0 326c0 3-1 5-4 7z"/>
<glyph glyph-name="burger" unicode="&#81;" d="M444 132c-3-5-4-6-6-8-1-2-2-3-5-7-7-9-20-9-20-9l-318 0c0 0-13 0-20 9-2 3-3 5-4 7-2 2-3 3-6 7-3 5-4 12-1 17 2 5 7 7 15 8 1 0 3 0 4 0l343 0c2 0 4 0 5 0l1 0 0 0c6-1 10-4 13-8 2-6 1-12-1-16m-387 63c0 5 2 9 3 12 15-5 35 4 53 12l5 3c10 4 17-2 28-12 8-8 18-17 31-17l0 0c11 0 21 5 32 11 26-8 46-16 61-22l3-1 3 2c0 1 15 14 39 26 21-7 58-18 78 11 4 0 15-3 23-4 12-3 24-6 34-5 3-5 5-10 5-16 0-13-10-24-23-27-2 0-4 0-6 0l-343 0c-2 0-3 0-4 0-13 3-22 15-22 27m243 20c-14-8-24-16-29-20-12 5-28 11-47 17 17 8 35 15 60 8 5-2 10-3 16-5m-225 39c5-2 10-3 15-3l341 0c3 0 5 0 7 1 13-6 20-14 19-21 0-5-3-8-5-8-7-1-21 2-33 5-20 4-31 6-35 0-13-20-36-17-67-6-4 1-8 2-11 3-7 3-13 5-19 6-35 11-60-3-81-15-10-5-20-11-29-11-8 0-15 7-23 14-10 9-23 21-41 14l-5-3c-17-8-37-16-47-10-2 2-4 4-5 7-5 10 9 21 19 27m-11 44c44 60 114 95 188 95 75 0 146-35 189-95 6-9 8-19 6-26-2-4-5-7-9-8 0 0 0 0-1 0-2-1-4-1-6-1l-341 0c-5 0-9 1-13 3 0 0-1 0-1 0-7 3-12 8-14 14-2 6-1 12 2 18m403-103c0 7-2 14-5 20 4 3 7 8 7 15 1 6-1 18-17 28 2 3 5 6 6 10 4 10 1 24-7 37-46 63-120 100-199 100-78 0-152-37-198-101-5-9-7-19-4-28 2-6 7-12 13-16-22-15-22-29-18-38 1-3 3-6 5-8-3-5-5-12-5-19 0-13 7-24 17-32-4-3-7-6-9-9-4-9-4-20 2-29 3-6 4-7 6-9 1-1 2-3 5-6 10-14 27-14 29-14l318 0c1 0 19-1 30 14 2 3 3 5 4 6 2 2 3 4 7 9 5 9 5 20 2 28-2 3-4 6-8 9 11 7 19 19 19 33m-277 155c7 4 13 2 14 1 1-2-2-8-9-11-7-3-13-2-14 0-1 1 2 7 9 10m-4-24c4 0 9 1 14 3 13 6 19 18 15 27-4 9-18 11-30 5l0 0c-13-6-20-18-15-27 2-5 9-8 16-8m55 5c0 0 0 0 0 0 1 1 1 1 2 1 1 0 2 1 4 1 2 0 5-1 8-2 8-4 11-9 10-11-1-2-7-3-14 0-6 3-9 6-9 9-1 0-1 1-1 2m5-22c4-2 9-3 13-3 8 0 14 3 17 9 4 9-3 21-15 27-8 3-16 4-22 1-4-1-7-4-9-7-1-3-1-7 0-11 2-6 8-12 16-16m58 38c0 1 1 2 2 2 1 1 3 1 6 1 2 0 4 0 6-1 8-2 12-7 11-8 0-2-6-5-14-2-6 1-9 4-10 6-1 1-1 2-1 2 0 0 0 0 0 0m8-20c3-1 6-1 9-1 10 0 18 4 20 11 2 10-6 20-19 24-8 2-16 2-22-1-4-3-6-6-7-9-1-4-1-8 1-12 3-5 10-10 18-12"/>
<glyph glyph-name="bus-front" unicode="&#82;" d="M455 287c0-5-4-9-9-9l-6 0 0 80 6 0c5 0 9-4 9-9z m-29-163c0-13-11-23-24-23l-291 0c-13 0-24 10-24 23l0 308c0 13 11 23 24 23l291 0c13 0 24-10 24-23z m-57-62c-16 0-28 11-30 24l59 0c-1-13-14-24-29-24z m-220 0c-15 0-28 11-29 24l59 0c-2-13-14-24-30-24z m-83 216c-5 0-9 4-9 9l0 62c0 5 4 9 9 9l6 0 0-80z m380 95l-6 0 0 59c0 21-17 37-38 37l-291 0c-21 0-39-16-39-37l0-59-6 0c-13 0-23-11-23-24l0-62c0-13 10-24 23-24l6 0 0-139c0-19 15-34 33-37 1-22 20-40 44-40 24 0 43 18 44 39l132 0c1-21 20-39 44-39 24 0 44 19 44 41 16 5 27 19 27 36l0 139 6 0c13 0 23 11 23 24l0 62c0 13-10 24-23 24z m-304-244c-12 0-22 10-22 22 0 12 10 22 22 22 13 0 23-10 23-22 0-12-10-22-23-22m0 59c-20 0-36-17-36-37 0-21 16-37 36-37 21 0 37 16 37 37 0 20-16 37-37 37m231-59c-12 0-22 10-22 22 0 12 10 22 22 22 12 0 22-10 22-22 0-12-10-22-22-22m0 59c-20 0-37-17-37-37 0-21 17-37 37-37 20 0 37 16 37 37 0 20-17 37-37 37m-191 240l160 0c6 0 11-4 11-10 0-5-5-9-11-9l-160 0c-7 0-12 4-12 9 0 6 5 10 12 10m0-34l160 0c14 0 26 11 26 24 0 14-12 25-26 25l-160 0c-15 0-26-11-26-25 0-13 11-24 26-24m217-137c0-14-12-25-25-25l-231 0c-14 0-25 11-25 25l0 84c0 14 11 26 25 26l231 0c13 0 25-12 25-26z m-25 124l-231 0c-22 0-40-18-40-40l0-84c0-22 18-40 40-40l231 0c21 0 39 18 39 40l0 84c0 22-18 40-39 40z"/>
<glyph glyph-name="camera" unicode="&#83;" d="M85 363c-15 0-26-12-26-26l0-206c0-14 11-26 26-26l342 0c15 0 26 12 26 26l0 206c0 14-11 26-26 26l-96 0-21 28c-8 10-15 20-33 20l-96 0c-19 0-25-9-34-20l-20-28z m342-274l-342 0c-23 0-42 19-42 42l0 206c0 23 19 42 42 42l34 0 16 21c8 12 19 27 46 27l96 0c26 0 37-16 46-27l16-21 88 0c23 0 42-19 42-42l0-206c0-23-19-42-42-42z m-201 250c-53 0-95-43-95-95 0-53 42-95 95-95 52 0 95 42 95 95 0 52-43 95-95 95m0-206c-62 0-111 49-111 111 0 61 49 111 111 111 61 0 111-50 111-111 0-62-50-111-111-111m0 174c-35 0-63-29-63-63 0-35 28-63 63-63 34 0 62 28 62 63 0 34-28 63-62 63m0-142c-44 0-79 35-79 79 0 43 35 79 79 79 43 0 78-36 78-79 0-44-35-79-78-79m160 157c-7 0-13-6-13-13 0-7 6-12 13-12 7 0 13 5 13 12 0 7-6 13-13 13m0-41c-16 0-28 12-28 28 0 16 12 29 28 29 16 0 29-13 29-29 0-16-13-28-29-28"/>
<glyph glyph-name="car-front" unicode="&#84;" d="M454 300c-2-3-6-6-9-7l-11-3 3-7c1-3 1-7 1-10l0-102c-31-9-76-13-77-13l0 0c-27-2-68-4-105-4-42 0-90 2-117 4l-1 0 0 0c0 0-29 3-64 12l0 103c0 3 0 7 1 10l3 7-11 3c-8 2-12 11-10 19 3 8 11 13 19 10l19-5 34 68c8 15 29 28 46 28l162 0c17 0 38-13 46-28l34-68 19 5c4 1 8 1 11-1 4-2 7-5 8-9l0 0c1-4 1-8-1-12m-33-198l-23 0c-9 0-17 7-17 17l0 27c15 2 38 6 57 10l0-37c0-10-7-17-17-17m-307 0l-24 0c-9 0-16 7-16 17l0 37c25-7 47-10 57-11l0-26c0-10-8-17-17-17m354 214c-2 7-7 14-14 17-7 4-15 5-22 2l-8-2-29 58c-10 20-35 36-58 36l-162 0c-23 0-48-16-58-36l-29-58-8 2c-15 5-31-4-36-19-4-14 3-29 16-35 0-3 0-5 0-8l0-154c0-17 13-31 30-31l24 0c17 0 31 14 31 31l0 25c29-3 72-4 111-4 40 0 83 2 111 4l0-25c0-17 14-31 31-31l23 0c18 0 31 14 31 31l0 154c0 3 0 5 0 8 6 2 11 7 14 13 4 7 4 15 2 22m-307 52c2 4 10 9 14 9l162 0c4 0 12-5 14-9l24-48c-12-5-55-10-119-10-64 0-107 5-119 10z m95-72c50 0 135 3 135 22l0 2-28 55c-4 7-17 16-26 16l-162 0c-9 0-22-9-26-16l-28-55 0-2c0-19 85-22 135-22z m31-110l-62 0c-3 0-6 2-6 6 0 3 3 6 6 6l62 0c3 0 6-3 6-6 0-4-3-6-6-6m0 26l-62 0c-11 0-20-9-20-20 0-11 9-20 20-20l62 0c11 0 20 9 20 20 0 11-9 20-20 20m-120 18c-6-4-20-3-32-2l-4 0c-27 3-30 12-30 22 1 8 3 13 6 15 4 3 15 2 27 0 11-3 37-12 36-28-1-4-2-6-3-7m-31 48c-15 3-28 5-38-2-6-5-9-13-10-25-2-22 12-34 42-37l4 0c6 0 12-1 18-1 9 0 17 1 23 7 5 4 8 9 8 16 3 27-33 40-47 42m245-50l-4 0c-12-1-26-2-32 2-1 1-2 3-3 7-1 16 25 25 36 28 7 1 13 2 18 2 4 0 7-1 9-2 3-2 5-7 5-15 1-10-2-19-29-22m-5 50c-14-2-50-15-47-42 0-7 3-12 8-16 6-6 14-7 23-7 6 0 12 1 18 1l4 0c30 3 44 15 42 37-1 12-4 20-10 25-10 7-23 5-38 2"/>
<glyph glyph-name="car-side" unicode="&#85;" d="M444 199l-33 0c0 22-18 40-40 40-23 0-41-18-41-40l-126 0c0 22-18 40-41 40-22 0-40-18-40-40l-67 0c-2 1-3 4-4 8-1 5 1 13 3 20 18 2 44 6 46 17 1 5-4 10-10 13 23 9 50 13 50 13 1 0 2 0 2 1 1 0 57 41 85 52 35 13 90 15 136-10 13-7 54-33 54-33 1-1 2-1 3-1 10 1 29 1 35-4 1-1 2-4 3-8-6 0-16-1-19-2-4-1-5-5-5-12 0-5 1-14 7-15 3-1 12-1 17-1-2-6-3-11-6-14-1-1-3-4 1-8 2-1 3-3 3-6 0-9-13-10-13-10m-73-33c-18 0-32 15-32 32 0 17 14 31 32 31 17 0 31-14 31-31 0-17-14-32-31-32m-208 0c-17 0-31 15-31 32 0 17 14 31 31 31 18 0 32-14 32-31 0-17-14-32-32-32m-84 86c0 0 0 0 1 0 8-4 11-6 12-7-3-3-16-6-32-8 2 2 3 3 4 5 4 4 9 7 15 10m381 5c0-3 0-7 0-11-5 0-12 0-15 1-1 2-1 7-1 10 3 0 10 0 16 0 0 0 0 0 0 0m2 25c-10 8-33 7-40 7-7 4-41 26-54 32-48 26-106 24-143 11-28-11-79-47-86-53-9-1-59-10-81-30-10-10-17-30-15-44 1-7 4-12 10-15 0 0 1-1 2-1l68 0c4-18 21-32 40-32 20 0 36 14 40 32l128 0c4-18 20-32 40-32 19 0 36 14 40 32l33 0c8 1 22 5 22 20 0 5-2 9-4 11 10 16 10 53 0 62m-91-96c-7 0-13 5-13 12 0 7 6 12 13 12 7 0 12-5 12-12 0-7-5-12-12-12m0 34c-12 0-22-10-22-22 0-12 10-22 22-22 12 0 21 10 21 22 0 12-9 22-21 22m-208-34c-7 0-12 5-12 12 0 7 5 12 12 12 7 0 13-5 13-12 0-7-6-12-13-12m0 34c-12 0-21-10-21-22 0-12 9-22 21-22 12 0 22 10 22 22 0 12-10 22-22 22m125 66l0 28c34-1 60-17 73-28z m-10 28l0-28-72 0c26 19 51 27 72 28z m-89-29c-1-1-2-3-1-5 1-2 2-3 4-3l181 0c2 0 4 1 4 3 1 2 1 4-1 5 0 1-85 85-187 0z"/>
<glyph glyph-name="champagne" unicode="&#86;" d="M213 392c0 0-1 0-2 1l-42 32c-2 1-2 4-1 6 2 2 5 2 6 0l42-31c2-2 2-5 1-6-1-2-2-2-4-2m26 12c-2 0-3 1-4 3l-22 53c-1 2 0 5 3 6 2 1 4 0 5-3l22-53c1-2 0-4-2-5-1-1-1-1-2-1m28 7c0 0-1 0-1 0-2 0-4 2-4 4l3 50c0 3 2 5 5 4 2 0 4-2 4-4l-3-50c0-3-2-4-4-4m54-187c-8 5-13 12-15 20l-18 90 61 0 21-73c3-9 1-18-3-25-5-8-12-14-21-16-9-2-18 0-25 4z m-41 153l52 13 12-43-59 0z m140-272c-1 4-4 6-8 5l-30-7-26 106c9 4 17 11 22 19 7 11 9 24 6 36l-41 136c-1 3-5 5-8 5l-65-17c-4 0-6-4-5-7l27-140c3-12 11-22 22-29 7-4 15-6 24-6 1 0 3 0 5 0l26-106-30-7c-4 0-6-4-5-8 0-3 3-5 6-5 1 0 1 0 2 0l73 17c4 1 6 4 5 8z m-178 220l-58 0 9 33 53-12z m-21-112c-2-8-7-16-15-20-7-5-16-6-25-4-9 2-16 7-21 14-4 8-6 17-4 25l24 84 59 0z m34 145l-65 15c-3 1-7-1-8-5l-39-136c-3-12-1-25 6-36 5-8 13-15 23-19l-26-110-31 8c-3 1-7-1-8-5-1-4 1-7 5-8l73-19c0 0 1 0 1 0 3 0 6 2 7 5 1 3-1 7-5 8l-29 8 26 110c1 0 3 0 4 0 9 0 17 2 25 7 10 7 18 17 21 30l25 139c1 3-1 7-5 8z"/>
<glyph glyph-name="cocktail" unicode="&#87;" d="M341 359l-42 0 25 23 43 0z m-102-301c-30 0-57 3-76 7 17 7 47 16 75 25 29-9 60-18 78-24-19-5-47-8-77-8z m45 286l40 0-84-75-85 75 124 0-32-35z m30 38l-21-23-154 0-26 23z m72 15l-46 0 71 67-16 5-67-72-235 0c-3 0-6-2-7-5-1-3 0-6 2-8l144-129 0-151c-95-29-95-33-95-39-1-3 2-7 4-8 20-9 57-14 98-14 42 0 80 6 99 15 3 1 5 5 5 8-1 6-2 10-96 37l0 152 144 129c3 2 4 5 2 8-1 3-3 5-7 5z"/>
<glyph glyph-name="coffee" unicode="&#88;" d="M146 367l4 21 224 0 4-21z m188-309l-147 0-15 293 179 0z m-152 364l159 0 5-18-168 0z m20 15l15 0 0 17-15 0z m187-40c-1 4-4 7-8 7l-19 0-8 28c-1 3-4 5-7 5l-114 0 0 24c0 5-3 8-8 8l-31 0c-5 0-8-3-8-8l0-24-10 0c-4 0-7-2-8-6l-7-27-18 0c-4 0-7-3-8-7l-7-37c0-2 0-4 2-6 1-2 4-3 6-3l20 0 16-301c0-4 4-7 8-7l161 0c4 0 8 3 8 7l18 301 21 0c2 0 4 1 6 3 1 2 2 4 1 6z m-127-132c23 0 41-18 41-41 0-23-18-41-41-41-23 0-42 18-42 41 0 23 19 41 42 41m0-98c31 0 57 25 57 57 0 31-26 57-57 57-32 0-57-26-57-57 0-32 25-57 57-57"/>
<glyph glyph-name="direction-sign" unicode="&#89;" d="M420 382l-135 0 0 45 133-1 23-23z m-46-41l15-20-14-19-90 0 0 39z m-114-285c-15 0-30 2-40 3l25 19 31 0 25-19c-11-1-27-3-41-3z m-157 297l-23 23 21 21 135 0 0-44z m147 103l21 0 0-364-21 0z m205-48l-29 30c-1 1-3 2-5 2l-136 0 0 23c0 3-3 6-7 6l-35 0c-4 0-7-3-7-6l0-52-138 0c-2 0-3-1-5-2l-27-28c-3-3-3-7 0-10l29-30c1-1 3-2 5-2l136 0 0-251-37-28c-2-1-3-4-3-7 1-2 3-4 6-5 1 0 30-5 58-5 27 0 58 5 59 5 3 1 5 3 6 5 0 3-1 6-3 7l-37 28 0 200 94 0c2 0 4 1 5 3l19 26c1 2 1 5 0 8l-20 27c-1 2-3 3-5 3l-93 0 0 13 138 0c1 0 3 1 4 2l28 28c2 3 3 7 0 10z"/>
<glyph glyph-name="escalator-diagonal-up" unicode="&#90;" d="M193 361c9 0 16-7 16-16 0-9-7-17-16-17-10 0-17 8-17 17 0 9 7 16 17 16m0-42c14 0 26 12 26 26 0 14-12 26-26 26-15 0-26-12-26-26 0-14 11-26 26-26m69 98c9 0 16-7 16-16 0-9-7-17-16-17-10 0-17 8-17 17 0 9 7 16 17 16m0-42c14 0 26 11 26 26 0 14-12 26-26 26-15 0-26-12-26-26 0-15 11-26 26-26m117-180l-132-111c-4-3-4-9-1-13 2-3 5-4 7-4 3 0 5 1 6 3l132 110 12-14 19 53-56-10z m69 90c-8-8-19-12-30-12l-13 0c0 0 0 0 0 0l-89 0 0-31-36 0 0-30-35 0 0-31-35 0 0-31-35 0 0-31-35 0 0-33-45 0c-24 0-43 19-43 43 0 11 5 22 13 30 8 8 18 12 30 12l35 0 36 30 0 0 54 47 0 0 15 12 54 47 0 0 59 50 70 0c23 0 42-19 42-42 0-11-5-22-12-30z m-270-199l-29 0 0 24 35 0 0 31 35 0 0 30 36 0 0 31 35 0 0 31 35 0 0 30 61 0z m-3 203c0 9 8 17 18 17 4 0 9-1 12-5 3-3 5-8 5-12l0-37-35-30z m69 56c0 9 8 17 18 17 4 0 9-2 12-5 3-3 5-8 5-12l0-34-35-30z m174 22l-73 0-56-48 0 26c0 7-3 14-8 19-5 5-12 8-19 8-15 0-27-13-27-27l0-72-15-13 0 29c0 7-3 14-8 19-5 5-12 8-19 8-15 0-27-12-27-27l0-75-39-34-32 0c-14 0-27-5-37-15-10-10-15-23-15-36 0-29 23-52 52-52l86 0 220 186 17 0c13 0 26 6 36 16 10 9 15 22 15 36 0 29-23 52-51 52z"/>
<glyph glyph-name="escalator-horizontal-right" unicode="&#48;" d="M401 130l-290 0c-33 0-59 26-59 58 0 16 6 30 17 42 11 11 26 17 42 17l290 0c33 0 59-27 59-59 0-32-26-58-59-58z m-247 153c0 10 8 18 18 18 4 0 9-2 12-6 4-3 5-7 5-12l0-27-35 0z m76 19c0 9 8 17 18 17 4 0 9-2 12-5 3-3 5-8 5-12l0-46-35 0z m171-46l-126 0 0 46c0 7-3 14-8 19-5 5-12 8-19 8-15 0-28-12-28-27l0-46-21 0 0 27c0 7-3 14-8 19-5 5-12 8-19 8-15 0-27-12-27-27l0-27-34 0c-19 0-36-7-48-20-13-13-20-30-20-48 0-37 30-68 68-68l290 0c38 0 68 31 68 68 0 38-30 68-68 68z m-229 100c9 0 16-8 16-17 0-9-7-16-16-16-9 0-17 7-17 16 0 9 8 17 17 17m0-43c14 0 26 12 26 26 0 15-12 26-26 26-15 0-26-11-26-26 0-14 11-26 26-26m76 62c9 0 16-8 16-17 0-9-7-17-16-17-10 0-17 8-17 17 0 9 7 17 17 17m0-43c14 0 26 12 26 26 0 14-12 26-26 26-15 0-27-12-27-26 0-14 12-26 27-26m113-135l-249 0c-5 0-10-4-10-9 0-6 5-10 10-10l249 0 0-19 49 29-49 28z"/>
<glyph glyph-name="gas-pump" unicode="&#49;" d="M318 70c0-7-5-12-12-12l-214 0c-7 0-13 5-13 12l0 372c0 7 6 12 13 12l214 0c7 0 12-5 12-12z m140 268l0 7c0 2-1 5-2 6l-55 56c-3 3-8 3-11 0-3-3-3-8 0-11l17-17c-1-1-1-2-1-4l0-40c0-4 3-8 8-8 4 0 7 4 7 8l0 29 22-21 0-5c0-149-3-179-4-184-4-10-13-18-24-20-11-1-20 2-26 10-7 9-7 18-7 32 1 10 1 23 1 35 0 13 0 26 0 36 0 16 1 35-6 52-7 16-23 32-44 31l0 112c0 15-12 27-27 27l-214 0c-16 0-28-12-28-27l0-372c0-15 12-27 28-27l214 0c15 0 27 12 27 27l0 245c13 1 25-10 30-22 6-14 5-31 5-45-1-11-1-24-1-37 0-12 0-25 0-35 0-13-1-27 10-41 8-10 20-16 33-16 2 0 5 0 7 0 17 3 31 14 36 30 3 7 5 34 5 189z m-188-31c0-3-3-6-6-6l-130 0c-4 0-7 3-7 6l0 89c0 4 3 7 7 7l130 0c3 0 6-3 6-7z m-6 111l-130 0c-12 0-22-10-22-22l0-89c0-12 10-21 22-21l130 0c11 0 21 9 21 21l0 89c0 12-10 22-21 22z"/>
<glyph glyph-name="globe" unicode="&#50;" d="M308 68c19 19 34 48 44 84 18-6 35-15 51-25-25-28-58-49-95-59z m-199 59c16 10 33 19 51 25 10-36 25-65 44-84-37 10-70 31-95 59z m95 317c-19-19-34-48-44-83-18 6-35 14-50 24 24 28 57 49 94 59z m198-59c-15-10-32-18-50-24-10 35-26 64-44 83 37-10 69-31 94-59z m-37-138l86 0c-2-39-15-76-37-106-18 12-37 21-58 28 5 24 8 50 9 78z m-218 0c0-28 3-54 9-78-21-7-41-16-58-28-22 30-35 67-37 106z m0 18l-86 0c2 40 15 76 38 107 17-12 36-21 57-29-5-24-9-50-9-78z m218 0c-1 28-4 54-9 78 21 8 40 17 57 29 23-31 36-67 38-107z m-109 62c29 0 57 4 83 11 5-23 8-47 8-73l-182 0c0 26 3 50 8 73 26-7 54-11 83-11z m-1 125c1 0 1 0 1 0 0 0 0 0 0 0 33-1 62-40 78-97-24-7-51-10-78-10-27 0-54 3-78 10 16 57 45 96 77 97z m1-266c-29 0-57-4-83-11-5 22-8 47-8 72l182 0c0-25-3-50-8-72-26 7-54 11-83 11z m1-125c0 0-1-1-1-1 0 0-1 1-1 1-33 1-62 40-78 97 25 7 52 10 79 10 27 0 54-3 79-10-16-57-45-96-78-97z m212 195c0 117-95 213-212 213-1 0-1 0-1 0 0 0 0 0-1 0-117 0-212-96-212-213 0-117 94-212 211-213 1 0 1 0 2 0 1 0 1 0 2 0 117 1 211 96 211 213z"/>
<glyph glyph-name="globe-with-arrow-around" unicode="&#51;" d="M449 336c-7 19-17 37-30 53-7 9-15 18-24 25-8 8-17 14-26 21-39 24-85 37-130 34-22-2-45-7-66-15-21-9-40-21-57-36-18-14-32-32-44-51-11-19-20-41-24-63-5-22-6-44-4-67 2-22 8-44 18-64 4-11 10-20 16-30 6-9 13-18 21-26 15-16 33-30 52-41 20-10 41-18 63-22 22-4 45-4 67-1 44 6 85 28 117 59-32-30-74-52-117-57-22-3-45-3-66 2-22 4-43 11-62 22-19 10-36 25-51 41-8 8-14 17-21 26-5 9-11 19-15 29-9 20-15 41-17 63-2 22 0 44 5 65 5 21 13 42 25 60 11 18 25 36 42 49 17 14 35 25 55 33 21 8 42 13 64 14 43 3 86-10 122-34 9-6 18-12 25-20 9-7 16-15 22-23 12-15 21-32 28-49l-20-5 39-38 13 52z m-161-197c11 12 20 30 26 51 11-4 21-9 30-15-15-16-34-29-56-36z m-129 36c9 6 19 11 30 15 7-21 15-39 26-51-22 7-41 20-56 36z m56 202c-10-12-19-29-25-50-11 4-21 9-31 15 15 16 34 29 56 35z m108-112c-1 17-3 34-6 49 13 4 25 10 36 17 13-19 22-41 23-66z m0-13l53 0c-1-25-10-48-23-66-11 7-23 13-36 17 4 15 5 31 6 49z m-142 0c0-18 2-34 5-49-13-4-25-10-35-17-14 18-22 41-24 66z m0 13l-54 0c2 25 10 47 24 66 11-7 22-13 35-17-3-15-5-32-5-49z m71 38c18 0 36 2 52 7 3-14 5-29 5-45l-115 0c1 16 2 31 5 45 17-5 34-7 53-7z m-1 80c0 0 1 0 1 0 0 0 0 0 0 0 20 0 39-25 49-60-16-4-32-7-49-7-17 0-34 3-49 7 10 35 28 60 48 60z m1-169c-19 0-36-2-53-7-3 14-5 29-5 45l115 0c0-16-2-31-5-45-16 5-34 7-52 7z m1-80c-1 0-1 0-1 0-1 0-1 0-1 0-20 0-38 25-49 60 16 4 33 7 50 7 17 0 33-3 49-7-10-35-28-60-48-60z m91 208c-9-6-19-11-30-15-6 21-15 38-26 50 22-6 41-19 56-35z m-92 54c0 0 0 0 0 0 0 0-1 0-1 0-76 0-137-62-137-138 0-76 61-137 137-138 0 0 0 0 1 0 0 0 0 0 1 0 75 1 137 62 137 138 0 76-62 138-138 138z"/>
<glyph glyph-name="globe-with-arrows" unicode="&#52;" d="M293 145c10 12 18 28 23 47 10-3 20-8 28-13-14-16-31-27-51-34z m-128 34c9 5 18 10 28 13 6-19 14-35 23-47-19 7-37 19-51 34z m51 196c-9-12-17-28-23-47-10 4-19 9-28 14 14 15 32 27 51 33z m128-33c-9-5-18-10-28-14-5 19-13 35-23 47 20-6 37-18 51-33z m-19-89l51 0c-2-23-10-45-22-63-11 7-22 13-34 17 3 14 5 29 5 46z m-141 15l-50 0c1 23 9 44 22 62 10-6 21-12 34-16-4-14-5-30-6-46z m192 0l-51 0c0 16-2 32-5 46 12 4 23 10 33 16 13-18 21-39 23-62z m-121 35c17 0 34 2 50 7 3-13 5-28 5-42l-111 0c1 14 2 29 5 42 16-5 33-7 51-7z m-1 78c1 0 1 0 1 0 0 0 0 0 0 0 19 0 37-23 47-57-15-4-31-6-47-6-17 0-33 2-47 6 10 34 27 57 46 57z m-120-128l50 0c1-17 2-32 5-46-12-4-23-10-33-17-13 18-21 40-22 63z m121-35c-18 0-35-2-51-7-3 13-4 27-5 42l111 0c0-15-2-29-4-42-16 5-34 7-51 7z m0-79c0 0 0 0 0 0-1 0-1 0-1 0-19 1-37 24-47 58 15 4 31 6 48 6 16 0 32-2 47-6-10-34-27-57-47-58z m214-69l-13 50-13-13-76 76c15 22 24 48 24 77 0 30-10 57-26 79l72 72 13-13 13 50-50-13 13-14-70-70c-25 28-61 45-101 45 0 0 0 0 0 0 0 0-1 0-1 0-40 0-76-18-101-46l-70 70 13 14-50 13 13-50 13 13 72-71c-16-23-25-50-25-79 0-30 9-57 26-80l-76-75-13 13-13-50 50 13-13 13 74 75c25-27 60-45 100-45 0 0 0 0 1 0 0 0 0 0 1 0 40 0 77 19 101 47l75-75-13-13z"/>
<glyph glyph-name="hotel" unicode="&#53;" d="M455 61c0-2-1-3-3-3l-81 0c1 1 1 3 1 4l0 304 80 0c2 0 3-2 3-4z m-114-3l-45 0 0 59c0 11-8 20-19 20l-45 0c-11 0-20-9-20-20l0-59-57 0c-3 0-5 2-5 4l0 367c0 3 2 5 5 5l198 0c3 0 5-2 5-5l0-367c0-2-2-4-5-4z m-58 0l-57 0 0 59c0 3 2 6 6 6l45 0c3 0 6-3 6-6z m-226 3l0 301c0 2 1 4 3 4l76 0 0-304c0-1 0-3 1-4l-77 0c-2 0-3 1-3 3z m395 318l-80 0 0 50c0 11-8 19-19 19l-198 0c-11 0-19-8-19-19l0-50-76 0c-10 0-17-7-17-17l0-301c0-9 7-17 17-17l392 0c10 0 17 8 17 17l0 301c0 10-7 17-17 17z m-263-80l15 0 0 32-15 0z m-14-14l43 0 0 60-43 0z m71 14l16 0 0 32-16 0z m-13-14l42 0 0 60-42 0z m71 14l15 0 0 32-15 0z m-14-14l43 0 0 60-43 0z m-101 78l15 0 0 33-15 0z m-14-13l43 0 0 60-43 0z m71 13l16 0 0 33-16 0z m-13-13l42 0 0 60-42 0z m71 13l15 0 0 33-15 0z m-14-13l43 0 0 60-43 0z m-101-116l15 0 0 32-15 0z m-14-14l43 0 0 60-43 0z m71 14l16 0 0 32-16 0z m-13-14l42 0 0 60-42 0z m71 14l15 0 0 32-15 0z m-14-14l43 0 0 60-43 0z m-101-51l15 0 0 32-15 0z m-14-14l43 0 0 60-43 0z m71 14l16 0 0 32-16 0z m-13-14l42 0 0 60-42 0z m71 14l15 0 0 32-15 0z m-14-14l43 0 0 60-43 0z m-199 143l15 0 0 32-15 0z m-14-14l43 0 0 60-43 0z m14-51l15 0 0 32-15 0z m-14-14l43 0 0 60-43 0z m14-51l15 0 0 32-15 0z m-14-14l43 0 0 60-43 0z m329 144l15 0 0 32-15 0z m-14-14l43 0 0 60-43 0z m14-51l15 0 0 32-15 0z m-14-14l43 0 0 60-43 0z m14-51l15 0 0 32-15 0z m-14-14l43 0 0 60-43 0z"/>
<glyph glyph-name="hotel-sign" unicode="&#54;" d="M58 257c-2 0-3-1-3-2l0-128c0-1 1-2 3-2l396 0c2 0 3 1 3 2l0 128c0 1-1 2-3 2z m396-144l-396 0c-9 0-15 6-15 14l0 128c0 8 6 15 15 15l396 0c9 0 15-7 15-15l0-128c0-8-6-14-15-14z m-303 73l-31 0 0-26-10 0 0 59 10 0 0-24 31 0 0 24 10 0 0-59-10 0z m57 25c-12 0-20-9-20-21 0-12 8-22 20-22 11 0 19 10 19 22 0 12-8 21-19 21m0 9c17 0 29-13 29-30 0-18-12-31-29-31-18 0-30 13-30 31 0 17 12 30 30 30m56-10l-17 0 0 9 45 0 0-9-17 0 0-50-11 0z m46 9l40 0 0-9-30 0 0-15 29 0 0-9-29 0 0-17 30 0 0-9-40 0z m59 0l10 0 0-50 26 0 0-9-36 0z m-278 125l6-20 21 0-17-12 7-20-17 12-17-12 7 20-17 12 21 0z m72 40l7-19 21 0-17-13 6-19-17 12-16-12 6 19-17 13 21 0z m93 21l6-19 21 0-17-13 7-19-17 12-17-12 7 19-17 13 21 0z m95-21l6-19 21 0-17-13 7-19-17 12-17-12 7 19-17 13 21 0z m71-40l7-20 20 0-16-12 6-20-17 12-17-12 7 20-17 12 21 0z"/>
<glyph glyph-name="keys" unicode="&#55;" d="M364 171l-35 0c-3 0-4 2-4 4 0 3 1 5 4 5l35 0c46 0 83 37 83 83 0 46-37 83-83 83l-56 0c-2 0-4 2-4 5 0 2 1 4 4 4l56 0c51 0 92-41 92-92 0-51-41-92-92-92z m-44-11c-2-1-5-2-7-2-9 0-16 8-16 17 0 9 7 16 16 16 2 0 4-1 6-1-5-3-8-9-8-15 0-6 4-12 9-15z m-41-49c-27 0-50 18-59 46l-2 5-26 0-115 0-13 17 13 13 11-11 16 12 15-12 13 11 16-11 13 14 58 0 1 4c10 24 33 40 60 40 28-1 53-19 61-46l-5 0c-2 3-4 4-4 5-6 4-12 6-19 6-16 0-30-13-30-29 0-17 13-30 30-30 8 0 15 3 21 9 1 1 2 2 3 4l4 0c-8-28-33-47-62-47z m63 184c0-3-3-6-7-6l-272 0c-4 0-7 3-7 6l0 112c0 3 3 6 7 6l272 0c4 0 7-3 7-6l0-38-34 0c-10 0-18-8-18-18 0-10 8-18 18-18l34 0z m22 74l-9 0 0 38c0 11-9 20-20 20l-272 0c-11 0-20-9-20-20l0-112c0-11 9-20 20-20l272 0c11 0 20 9 20 20l0 38 9 0c38 0 70-31 70-70 0-38-32-70-70-70l-10 0c0 1 0 1 0 1-9 34-39 58-74 58-31 0-58-17-70-44l-55 0-9-9-15 11-13-12-15 12-14-12-13 13-30-32 25-31 121 0 17 0c11-31 39-51 70-51 36 0 67 25 76 60 0 0 0 0 0 1l9 0c58 0 105 47 105 105 0 58-47 106-105 106z"/>
<glyph glyph-name="latte" unicode="&#56;" d="M343 112l-122 0c-22 10-41 24-58 43-3 4-6 8-9 12-22 29-36 65-42 103l0 0c-1 9-1 17-2 25l343 0c-2-81-46-154-110-183z m-233 46c-28 0-51 23-51 52 0 13 5 26 15 36 6 7 15 12 24 14 0-2 1-4 1-6 0-2 1-3 1-5 1-4 2-8 3-12 0-1 1-3 1-4 1-5 3-10 5-15 0-1 1-2 1-4 2-3 3-7 5-11 0-1 1-3 2-5 2-3 3-6 5-9 0-2 1-4 2-5 2-3 4-6 6-10 1-1 1-2 2-4 3-4 6-8 9-12z m267-98l-191 0c-35 8-60 25-70 35l330 0c-11-11-35-27-69-35z m92 243l0 8-375 0 0-8c0-9 1-18 2-27-13-3-24-9-33-18-13-13-20-30-20-48 0-38 30-68 67-68l44 0c11-12 23-22 36-31l-95 0 0-8c0-18 39-48 89-59l195 0 1 0c49 11 89 44 89 59l0 8-95 0c58 39 95 112 95 192z m-261 41c0-4 3-8 8-8 4 0 8 4 8 8 0 11 5 17 11 24 7 7 16 17 16 35 0 17-9 27-16 34-6 7-11 13-11 24 0 5-4 8-8 8-5 0-8-3-8-8 0-17 9-27 16-34 6-7 11-13 11-24 0-12-5-17-11-24-7-8-16-17-16-35m52 0c0-4 4-8 8-8 5 0 8 4 8 8 0 11 5 17 12 24 7 7 15 17 15 35 0 17-8 27-15 34-7 7-12 13-12 24 0 5-3 8-8 8-4 0-8-3-8-8 0-17 9-27 16-34 6-7 11-13 11-24 0-12-5-17-11-24-7-8-16-17-16-35m53 0c0-4 3-8 8-8 4 0 8 4 8 8 0 11 5 17 11 24 7 7 16 17 16 35 0 17-9 27-16 34-6 7-11 13-11 24 0 5-4 8-8 8-5 0-8-3-8-8 0-17 8-27 15-34 7-7 12-13 12-24 0-12-5-17-12-24-7-8-15-17-15-35"/>
<glyph glyph-name="map-marker" unicode="&#57;" d="M257 453c-74 0-134-60-134-133 0-20 4-39 13-57 35-82 95-162 121-194 25 32 85 112 121 193 9 19 13 38 13 58 0 73-60 133-134 133z m0-410l-6 7c-21 26-90 115-130 206-9 20-14 41-14 64 0 82 67 149 150 149 83 0 150-67 150-149 0-22-5-44-15-64-39-91-108-180-129-206z m0 338c-33 0-59-27-59-59 0-33 26-59 59-59 33 0 59 26 59 59 0 32-26 59-59 59m0-135c-42 0-76 34-76 76 0 41 34 75 76 75 42 0 75-34 75-75 0-42-33-76-75-76"/>
<glyph glyph-name="map-marker-on-map" unicode="&#33;" d="M106 230l47 17-21-140-68-31z m49 79c-7 13-10 28-10 44 0 56 46 102 103 102 58 0 104-46 104-102 0-16-3-31-10-45-27-62-73-124-94-150-20 26-66 88-93 151z m101-165c13 16 45 59 73 107l0 0 22-145-95-44z m-88 108c28-49 60-91 73-108l0-82-95 44z m265-176l-68 31-21 139 47-16z m-30 165l-67 23c6 12 13 25 18 38 8 16 12 33 12 51 0 64-53 116-118 116-64 0-117-52-117-116 0-18 4-35 11-50 6-13 12-26 19-39l-67-23-51-191 95 44 110-51 111 51 95-44z m-192 113c0 20 17 37 37 37 21 0 38-17 38-37 0-21-17-37-38-37-20 0-37 16-37 37m89 0c0 28-23 51-52 51-28 0-51-23-51-51 0-28 23-51 51-51 29 0 52 23 52 51"/>
<glyph glyph-name="map-marker-with-globe" unicode="&#34;" d="M311 67c15 16 27 40 36 69 15-5 29-12 42-20-21-24-48-41-78-49z m-171 49c12 8 26 15 41 20 9-29 21-53 36-69-30 8-56 25-77 49z m-59 270c0 37 30 66 67 66 33 0 61-24 66-56l0 0c0-3 1-7 1-10 0-1 0-3-1-5 0-8-2-16-6-24-7-15-15-31-25-47-2-2-3-4-4-6-12-19-24-34-31-44-8 10-21 28-34 48-11 18-20 34-27 50-4 9-6 18-6 28z m307-48c-12-8-26-15-41-20-9 29-21 53-36 69 30-9 56-26 77-49z m-29-103c-1 23-4 45-8 66 18 6 34 14 48 24 19-27 30-57 32-90z m-172 0c0 20 3 41 7 61 0 0 0 0 0 0 22-6 46-9 70-9 25 0 48 3 71 9 4-19 6-40 7-61z m7-77c-5 19-7 39-7 60l155 0c-1-21-3-41-7-60-45 12-96 12-141 0z m29 192c4 9 7 18 8 26 10 12 22 18 33 18 27 0 52-32 67-82-41-11-87-11-128-1 8 14 15 27 20 39z m-82-109c2-2 4-3 7-3l0 0c2 0 5 1 6 3 4 4 10 12 18 22-1-9-2-19-2-28l-72 0c0 18 4 35 10 51 15-23 29-40 33-45z m-12-112c-19 26-30 57-32 89l73 0c0-23 3-44 7-65-17-6-34-14-48-24z m137-69c0 0 0 0 0 0l-4 0c0 0 0 0 0 0-26 1-51 33-64 81 42 12 90 12 133 0-14-48-39-80-65-81z m134 69c-15 10-31 18-49 24 5 21 7 42 8 65l72 0c-2-32-13-63-31-89z m8 212c-35 44-88 70-144 70-12 0-24-2-35-4-10 36-43 62-81 62-46 0-84-37-84-83 0-12 3-24 8-35 6-15 15-31 25-48-11-24-17-50-17-76 0-42 14-82 40-115 34-43 86-68 140-69 1 0 1 0 1 0 0 0 0 0 0 0 1 0 1 0 1 0l0 0c1 0 1 0 2 0 1 0 2 0 2 0 1 0 1 0 2 0 0 0 0 0 0 0 55 1 106 26 140 69 26 33 40 73 40 115 0 42-14 82-40 114z m-260 73c15 0 27-12 27-27 0-15-12-27-27-27-15 0-27 12-27 27 0 15 12 27 27 27m0-71c24 0 44 20 44 44 0 24-20 44-44 44-25 0-44-20-44-44 0-24 19-44 44-44"/>
<glyph glyph-name="onion-domes" unicode="&#35;" d="M395 161l-27 0 37 43c3-8 3-16 1-24-2-7-6-17-11-19z m-11-107l0 49c0 13-10 24-22 24-12 0-22-11-22-24l0-49-8 0 0 49c0 13-10 24-22 24-13 0-23-11-23-24l0-49-13 0 0 96 121 0 0-96z m-11 0l-22 0 0 49c0 7 5 13 11 13 6 0 11-6 11-13z m-53 0l-21 0 0 49c0 7 5 13 11 13 5 0 10-6 10-13z m-162 0l-22 0 0 49c0 7 5 13 11 13 6 0 11-6 11-13z m-50 93l80 0 0-93-19 0 0 49c0 13-10 24-22 24-12 0-22-11-22-24l0-49-17 0z m-4 104c3 3 6 7 11 11 1 1 2 1 3 2 2 2 4 3 5 5 13 7 21 17 27 30 6-12 13-23 26-30 2-2 4-3 6-5 1-1 2-1 3-2 4-3 6-6 9-8 1-1 2-2 2-3 7-8 9-17 6-26l0 0c-1-5-4-11-6-12l-92 0c-2 1-5 7-6 12-3 9-1 18 6 26z m121 133c0 8 6 14 14 14 8 0 15-6 15-14 0-8-7-15-15-15-8 0-14 7-14 15z m107-98c3-6 6-12 10-18l-81-95c-1 2-2 5-3 7-3 12 0 25 9 37 4 5 9 10 15 15 2 1 3 3 5 4 2 2 5 4 8 6 18 10 28 26 37 44z m-85 47l36-70-36 0z m-12 5l0-75-34 0z m-101-180l-7 0 0 19c0 2 2 3 3 3 2 0 4-1 4-3z m32 33c-8 0-15-7-15-15l0-18-6 0 0 19c0 8-7 15-15 15-8 0-14-7-14-15l0-19-8 0 0 44 80 0 0-44-8 0 0 18c0 8-6 15-14 15z m3-33l-7 0 0 18c0 2 2 4 4 4 2 0 3-2 3-4z m62 9c-12 0-22-10-22-23l0-90-10 0 0 148c9 3 13 17 14 20 3 10 2 20-4 30l76 0 0-3c-2-2-4-3-6-5-1-1-2-2-4-3-7-6-13-11-17-17-12-15-15-31-11-47 1-2 5-19 15-25l0-98-9 0 0 90c0 13-10 23-22 23z m11-113l-22 0 0 90c0 6 5 12 11 12 6 0 11-6 11-12z m127 188c1-1 2-2 3-2l-66-79-37 0c-1 1-1 1-2 2l82 96c6-7 12-12 20-17z m28-25c1-1 1-2 2-2l-45-54-33 0 60 72c0-1 0-1 1-1 6-5 11-10 15-15z m20-40c4 16 1 32-11 47-4 6-10 11-17 17-2 1-3 2-4 3-3 3-6 5-10 7-18 11-26 26-37 48l0 31 12 0c3 0 6 2 6 6 0 3-3 5-6 5l-12 0 0 14c0 3-2 5-5 5-3 0-6-2-6-5l0-14-12 0c-3 0-6-2-6-5 0-4 3-6 6-6l12 0 0-29 0 0c-9-18-17-33-30-44l0 4-51 98c11 3 19 13 19 25 0 12-8 22-20 25l0 31 12 0c4 0 6 3 6 6 0 3-2 6-6 6l-12 0 0 12c0 3-2 5-6 5-3 0-5-2-5-5l0-12-13 0c-3 0-5-3-5-6 0-3 2-6 5-6l13 0 0-31c-12-2-21-13-21-25 0-12 9-22 20-25l-41-88c-1 0-2 1-3 2-2 2-4 4-7 5-12 8-18 18-26 34l0 19 8 0c3 0 5 3 5 6 0 3-2 6-5 6l-8 0 0 9c0 3-2 5-5 5-4 0-6-2-6-5l0-9-8 0c-3 0-5-3-5-6 0-3 2-6 5-6l8 0 0-18c-7-15-14-27-27-35-3-1-5-3-7-5-1-1-2-2-3-2-6-5-10-9-13-13-9-11-12-24-8-36 0-2 3-14 11-19l-1 0 0-160 309 0 0 111-1 0c8 8 11 21 12 23z"/>
<glyph glyph-name="pagoda" unicode="&#36;" d="M330 324l43 0 0 34-43 0z m-226-59l307 0 0 43-307 0z m226-172l43 0 0 156-43 0z m-186 0l43 0 0 156-43 0z m0 231l43 0 0 34-43 0z m102 0l25 0 0 34-25 0z m-43 0l27 0 0 34-27 0z m83 0l28 0 0 34-28 0z m-173 50l-46 58 378 0-45-58z m290-16c3 0 5 1 7 3l58 74c2 3 2 6 1 9-2 2-5 4-8 4l-410 0c-3 0-6-2-8-4-1-3-1-6 1-9l59-74c1-2 3-3 6-3l19 0 0-34-40 0 0-75 40 0 0-172 75 0 0 172 111 0 0-172 75 0 0 172 38 0 0 75-38 0 0 34z"/>
<glyph glyph-name="parking-sign" unicode="&#37;" d="M92 451c-17 0-31-14-31-31l0-328c0-17 14-31 31-31l328 0c17 0 31 14 31 31l0 328c0 17-14 31-31 31z m328-408l-328 0c-27 0-49 22-49 49l0 328c0 27 22 49 49 49l328 0c27 0 49-22 49-49l0-328c0-27-22-49-49-49z m-200 226l53 0c21 0 36 13 36 32 0 19-15 32-36 32l-53 0z m53-18l-62 0c-5 0-10 4-10 9l0 83c0 5 5 9 10 9l62 0c32 0 54-21 54-51 0-30-22-50-54-50z m-99-119l27 0 0 88c0 5 5 9 10 9l69 0c52 0 75 36 75 72 0 36-23 73-75 73l-106 0z m37-19l-46 0c-5 0-9 4-9 9l0 261c0 5 4 9 9 9l115 0c55 0 94-37 94-91 0-53-39-91-94-91l-60 0 0-88c0-5-4-9-9-9z"/>
<glyph glyph-name="passport" unicode="&#38;" d="M391 69c0-7-6-12-13-12l-245 0c-7 0-12 5-12 12l0 331c0 2 0 3 1 5 2 4 6 7 11 7l245 0c7 0 13-5 13-12z m-45 386c3 1 6 0 8-1 2-2 3-4 3-7l0-21-168 0z m32-29l-7 0 0 21c0 7-3 13-8 17-5 5-13 6-20 5l-212-39c-11-2-20-12-23-23 0 0-1-1-1-2 0 0 0-1 0-1 0-1 0-3 0-4l0-331 0 0c0-15 12-26 26-26l245 0c15 0 27 11 27 26l0 331c0 15-12 26-27 26z m-166-147c0-8 1-16 3-23-6-2-11-4-16-7-6 8-10 19-11 30z m3 36c-2-7-3-14-3-22l-24 0c1 11 5 21 11 30 5-3 10-6 16-8z m3 14c-3 1-7 3-10 5 5 5 12 9 18 13-3-6-5-11-8-18z m75 0c-2 7-5 12-8 18 7-4 13-8 18-13-3-2-7-4-10-5z m6-36c0 8-1 15-3 22 6 2 11 5 16 8 6-9 10-19 11-30z m-2-37c1 7 2 15 2 23l24 0c-1-11-5-22-11-30-5 3-10 5-15 7z m-4-13c4-2 7-4 10-5-5-6-11-10-18-13 3 5 6 11 8 18z m-67 50c1 6 1 12 2 18 9-2 18-3 28-3 9 0 18 1 27 3 1-6 2-12 2-18z m59-14c0-7-1-13-2-19-9 2-18 4-27 4-10 0-19-2-28-4-1 6-1 12-2 19z m-59-54c-7 3-13 7-18 13 3 1 7 3 10 5 2-7 5-13 8-18z m30-7c0 0 0 0 0 0-9 0-19 11-24 29 7 2 15 3 24 3 8 0 16-1 24-3-6-18-15-29-24-29 0 0 0 0 0 0z m0 135c0 0 0 0 0 0 8 0 18-10 24-28-8-2-16-3-24-3-9 0-17 1-24 3 6 18 15 28 24 28 0 0 0 0 0 0z m-1-149c0 0 0 0 1 0 0 0 0 0 0 0 45 0 81 37 81 82 0 45-36 81-81 81 0 0 0 0 0 0 0 0-1 0-1 0-45 0-81-36-81-81 0-45 36-82 81-82z m-71-79l-13 0 0 19 13 0c6 0 10-4 10-10 0-5-4-9-10-9m2 27l-25 0 0-57 10 0 0 22 15 0c11 0 18 8 18 17 0 10-6 18-18 18m33-37l10 27 10-27z m4 37l-23-57 12 0 4 11 26 0 4-11 11 0-22 57z m48-15c0 4 4 7 10 7 6 0 12-2 16-6l6 7c-5 5-12 8-21 8-13 0-21-7-21-16 0-21 33-14 33-26 0-4-3-8-11-8-8 0-14 4-18 8l-6-8c5-5 13-9 23-9 16 0 22 8 22 18 0 21-33 15-33 25m51 0c0 4 4 7 10 7 6 0 12-2 16-6l6 7c-5 5-13 8-21 8-13 0-21-7-21-16 0-21 33-14 33-26 0-4-3-8-11-8-8 0-15 4-18 8l-6-8c5-5 13-9 23-9 16 0 22 8 22 18 0 21-33 15-33 25"/>
<glyph glyph-name="placesetting" unicode="&#39;" d="M268 162c-61 0-111 50-111 111 0 61 50 111 111 111 61 0 110-50 110-111 0-61-49-111-110-111m0 234c-68 0-123-55-123-123 0-68 55-123 123-123 67 0 122 55 122 123 0 68-55 123-122 123m0-198c-42 0-75 34-75 75 0 41 33 75 75 75 41 0 74-34 74-75 0-41-33-75-74-75m0 162c-48 0-87-39-87-87 0-48 39-87 87-87 47 0 86 39 86 87 0 48-39 87-86 87m-143 25c0 3-3 6-6 6-4 0-7-3-7-6 0-3 1-6 1-10 0-16 1-58-3-65-3-7-13-12-19-12l0 90c0 4-3 7-7 7-3 0-6-3-6-7l0-90c-6-1-17 5-20 12-4 7-3 49-3 65 0 4 0 7 0 10 0 3-3 6-6 6-3 0-6-3-6-6 0-2 0-6 0-10-1-37 0-62 4-71 5-11 19-18 30-18 1 0 1 0 1 0l0-158c0-3 3-6 6-6 4 0 7 3 7 6l0 158c10 0 25 7 30 18 4 9 4 33 4 71 0 4 0 7 0 10m332 8l0-140-17 0c-5 9-10 26-10 57 0 66 21 80 27 83z m12 1c0 4-1 7-4 9-2 2-6 3-9 2-4-1-39-11-39-95 0-37 9-57 14-66 0 0 0 0 0 0 1-1 1-2 2-2 0 0 0 0 0 0 1-1 2-1 3-1l21 0 0-112c0-3 3-6 6-6 4 0 6 3 6 6l0 116c0 1 0 1 0 1 0 0 0 1 0 1z"/>
<glyph glyph-name="serving-tray" unicode="&#40;" d="M440 149l-368 0c-5 5-10 10-15 16l398 0c-5-6-10-11-15-16z m-197 183c6 1 12 1 18 1 3-1 7-1 11-1 83-8 145-76 148-158l-327 0c2 83 67 152 150 158z m4 11c0 6 5 11 11 11 5 0 10-5 10-11l0-2c-3 0-5 1-8 1-1 0-2 0-3 0 0 0-1 0-1 0-3 0-6 0-9-1z m222-172c-1 1-2 2-4 2l-37 0c-2 87-66 157-151 167l0 3c0 11-9 20-19 20-11 0-20-9-20-20l0-2c-85-9-152-81-154-168l-37 0c-2 0-3-1-4-2-1-2 0-4 1-5 7-8 15-17 24-25 0-1 2-1 3-1l370 0c1 0 3 0 3 1 9 8 17 16 24 25 1 1 2 3 1 5z m-350 21l14-1c15 115 116 128 116 128-111-11-130-127-130-127"/>
<glyph glyph-name="stadium" unicode="&#41;" d="M436 283l-350 0-24 56 390 0z m-26-205l21 0 0 190-21 0z m-104 0l21 0 0 190-21 0z m-104 0l21 0 0 190-21 0z m-110 0l21 0 0 190-21 0z m-3 325l336 0-14-49-302 0z m96 41c8-6 17-12 29-11 13 0 25 7 35 21l19 0c10-14 22-21 35-21 11-1 21 5 29 11l0-26-147 0z m283-93c1-2 2-5 1-7l-20-71c-1-1-2-2-3-3l0-207-51 0 0 205-53 0 0-205-51 0 0 205-53 0 0-205-51 0 0 205-59 0 0-205-51 0 0 206c-1 1-2 2-3 4l-31 70c-1 3 0 5 1 7 1 2 4 4 6 4l43 0-23 54c0 2 0 5 1 7 2 2 4 3 6 3l93 0 0 44c0 3 2 6 6 7 3 1 6 0 8-3 0 0 14-18 29-18 1 0 1 0 1 0 9 0 17 6 25 18 1 2 3 3 6 3l27 0c3 0 5-1 6-3 8-12 16-18 25-18 0 0 0 0 1 0 15 0 29 18 29 18 2 3 5 4 8 3 3-1 6-4 6-7l0-44 88 0c2 0 4-1 6-3 1-2 1-4 1-6l-15-55 35 0c2 0 4-1 6-3z"/>
<glyph glyph-name="suitcase-1" unicode="&#42;" d="M334 165c0-14-11-25-25-25-14 0-26 11-26 25 0 14 12 26 26 26 14 0 25-12 25-26m-67 0c0-23 19-41 42-41 23 0 41 18 41 41 0 23-18 42-41 42-23 0-42-19-42-42m186-31c0-23-19-42-42-42l-12 0 0 156 19 4-15 62-4-1 0 55 12 0c23 0 42-19 42-42z m-61 161l7-31-68-16-8 30z m-9-203l-253 0 0 155c3 0 6 0 9-1 2 0 5 0 7 0 33 0 57 14 58 33 1 11-6 21-19 29-11 6-26 10-42 11-4 0-9 0-13 0l0 49 253 0 0-59-79-19 15-62 64 16z m-289 193c0 7 11 15 30 17 4 1 8 1 13 1 2 0 3 0 5 0 14-1 26-4 35-9 7-4 12-9 11-14 0-9-21-19-48-18-6 1-11 2-16 3-20 4-30 14-30 20z m20-193l-13 0c-23 0-42 19-42 42l0 192c0 23 19 42 42 42l13 0 0-51c-21-5-35-17-36-31-1-15 13-28 36-35z m85 317c0 6 3 12 7 16 5 5 10 7 17 7l66 0c7 0 12-2 17-7 4-4 7-10 7-16l0-25-114 0z m212-25l-83 0 0 25c0 10-4 20-11 28-7 7-17 11-28 11l-66 0c-11 0-21-4-28-11-7-8-11-18-11-28l0-25-83 0c-32 0-58-26-58-58l0-192c0-32 26-58 58-58l310 0c32 0 58 26 58 58l0 192c0 32-26 58-58 58z"/>
<glyph glyph-name="suitcase-2" unicode="&#43;" d="M387 115c0-15-10-27-24-32l0 0-7-1 0 326c17-2 31-16 31-34z m-60-57c-6 0-12 3-16 8l32 0c-3-5-9-8-16-8z m-111 23l-47 0 0 327 32 0c0 0 0 0 0 0l110 0c0 0 0 0 1 0l29 0 0-327z m-36-23c-6 0-12 3-16 8l32 0c-3-5-9-8-16-8z m-58 57l0 259c0 18 14 33 32 34l0-327 0 0c-18 1-32 16-32 34z m92 334c4 3 8 5 13 5l55 0c5 0 9-2 12-5 3-2 6-16 6-24l0-2-91 0 0 2c0 8 3 22 5 24z m142-27l0 1-41 0 0 2c0 4-2 27-10 35-6 6-14 9-23 9l-55 0c-9 0-17-3-23-9-8-8-10-31-10-35l0-2-40 0 0 0c-26-1-47-23-47-49l0-259c0-24 17-44 41-48 4-14 17-24 32-24 15 0 28 9 33 23l82 0c4-14 17-23 32-23 16 0 29 10 33 24 24 3 42 24 42 48l0 259c0 26-21 47-46 48z"/>
<glyph glyph-name="suitcase-3" unicode="&#44;" d="M454 134c0-23-19-42-43-42l-12 0 0 277 12 0c24 0 43-20 43-43z m-396 0l0 192c0 23 19 43 43 43l13 0 0-277-13 0c-24 0-43 19-43 42z m133 235l192 0 0-277-253 0 0 277z m15 57c4 4 10 6 17 6l66 0c7 0 13-2 17-6 4-5 7-11 7-17l0-25-114 0 0 25c0 6 3 12 7 17z m205-42l-83 0 0 25c0 10-4 20-11 28-7 7-17 11-28 11l-66 0c-11 0-21-4-28-11-7-8-11-18-11-28l0-25-83 0c-32 0-58-26-58-58l0-192c0-32 26-58 58-58l310 0c32 0 58 26 58 58l0 192c0 32-26 58-58 58z"/>
<glyph glyph-name="suitcase-on-cart" unicode="&#45;" d="M105 313c0 13 11 24 25 24l6 0 0-167-6 0c-14 0-25 11-25 25z m80 24l117 0 0-167-152 0 0 167z m11 36c2 3 5 4 9 4l41 0c3 0 6-1 9-4 2-2 3-5 3-8l0-14-66 0 0 14c0 3 2 6 4 8z m149-60l0-118c0-14-10-25-24-25l-5 0 0 167 5 0c14 0 24-11 24-24z m-215-157c-22 0-39 18-39 39l0 118c0 21 17 38 39 38l48 0 0 14c0 7 3 13 8 18 5 5 12 8 19 8l41 0c7 0 14-3 19-8 5-5 7-11 7-18l0-14 49 0c21 0 38-17 38-38l0-118c0-21-17-39-38-39z m339 257l-68 0 0-273c5-7 8-15 8-24 0-23-18-41-41-41-23 0-41 18-41 41l-202 0c0-23-19-41-41-41-23 0-41 18-41 41 0 23 18 41 41 41 18 0 33-11 39-27l206 0c6 16 21 27 39 27 7 0 13-2 19-5l0 275 82 0z"/>
<glyph glyph-name="taxi-front" unicode="&#46;" d="M454 280c-2-3-6-6-9-7l-11-3 3-7c1-4 1-7 1-10l0-103c-31-8-76-12-77-12l0 0c-27-3-68-4-105-4-42 0-90 1-117 4l-1 0 0 0c0 0-29 3-64 12l0 103c0 3 0 6 1 10l3 7-11 3c-8 2-12 11-10 19 3 8 11 12 19 10l19-6 34 68c8 16 29 29 46 29l162 0c17 0 38-13 46-29l34-68 19 6c4 1 8 1 11-1 4-2 7-5 8-9l0 0c1-4 1-8-1-12z m-16-182c0-9-7-17-17-17l-23 0c-9 0-17 8-17 17l0 28c15 2 38 5 57 10z m-307 0c0-9-8-17-17-17l-24 0c-9 0-16 8-16 17l0 38c25-7 47-10 57-11z m90 324l14 0 0-16-19 0z m62 0l15 0 5-16-20 0z m-32 0l16 0 0 12 16 0 0-12-16 0 0-16-16 0z m-16 0l16 0 0 12-16 0z m233-126c-2 7-7 13-14 17-7 4-15 5-22 2l-8-2-29 58c-10 20-35 35-58 35l-19 0-13 37c-1 3-4 5-7 5l-78 0c-3 0-5-2-6-5l-13-37-26 0c-23 0-48-15-58-35l-29-58-8 2c-15 5-31-4-36-19-4-15 3-30 16-35 0-3 0-6 0-8l0-155c0-17 13-30 30-30l24 0c17 0 31 13 31 30l0 25c29-2 72-3 111-3 40 0 83 2 111 4l0-26c0-17 14-30 31-30l23 0c18 0 31 13 31 30l0 155c0 2 0 5 0 8 6 2 11 7 14 13 4 6 4 14 2 22z m-181-131l-62 0c-3 0-6 3-6 7 0 3 3 6 6 6l62 0c3 0 6-3 6-6 0-4-3-7-6-7m0 27l-62 0c-11 0-20-9-20-20 0-11 9-20 20-20l62 0c11 0 20 9 20 20 0 11-9 20-20 20m-126 156c2 3 10 9 14 9l162 0c4 0 12-6 14-9l24-48c-12-5-55-10-119-10-64 0-107 5-119 10z m95-72c50 0 135 3 135 22l0 2-28 54c-4 8-17 17-26 17l-162 0c-9 0-22-9-26-17l-28-54 0-2c0-19 85-22 135-22z m-89-66c-6-5-20-3-32-2l-4 0c-27 2-30 12-30 22 1 7 3 12 6 15 4 3 15 2 27-1 11-2 37-12 36-27-1-4-2-6-3-7m-31 48c-15 3-28 5-38-2-6-5-9-13-10-25-2-22 12-34 42-37l4 0c6-1 12-1 18-1 9 0 17 1 23 6 5 4 8 10 8 17 3 27-33 39-47 42m245-50l-4 0c-12-1-26-3-32 2-1 1-2 3-3 7-1 15 25 25 36 27 7 2 13 3 18 3 4 0 7-1 9-2 3-3 5-8 5-15 1-10-2-20-29-22m-5 50c-14-3-50-15-47-42 0-7 3-13 8-17 6-5 14-6 23-6 6 0 12 0 18 1l4 0c30 3 44 15 42 37-1 12-4 20-10 25-10 7-23 5-38 2"/>
<glyph glyph-name="taxi-side" unicode="&#47;" d="M444 193l-33 0c0 22-18 40-40 40-23 0-41-18-41-40l-126 0c0 22-18 40-41 40-22 0-40-18-40-40l-67 0c-2 1-3 4-4 8-1 6 1 13 3 20 18 2 44 6 46 17 1 6-4 10-10 13 23 9 50 13 50 13 1 0 2 0 2 1 1 0 57 42 85 52 35 13 90 15 136-10 13-7 54-33 54-33 1 0 2-1 3-1 10 1 29 1 35-4 1-1 2-4 3-8-6 0-16 0-19-2-4-1-5-5-5-12 0-5 1-14 7-15 3-1 12-1 17-1-2-6-3-11-6-14-1-1-3-4 1-8 2-1 3-3 3-6 0-9-13-10-13-10z m-73-33c-16 0-30 13-32 28 0 2 0 3 0 4 0 17 14 32 32 32 17 0 31-15 31-32 0-17-14-32-31-32z m-208 0c-17 0-31 15-31 32 0 17 14 32 31 32 18 0 32-15 32-32 0-17-14-32-32-32z m-84 86c0 0 0 0 1 0 8-4 11-6 12-7-3-3-16-6-32-8 2 2 3 4 4 5 4 4 9 7 15 10z m180 99l9 0 0-10c-4-1-9-1-14-2z m20 0l11 0 0 8 10 0 0-8-10 0 0-10c-4 0-7 0-11 0z m-11 0l11 0 0 8-11 0z m47-12c-5 1-10 1-15 2l0 10 10 0z m145-82c0-3 0-7 0-11-5 0-12 0-15 1-1 2-1 7-1 10 3 0 10 0 16 0 0 0 0 0 0 0z m2 25c-10 8-33 7-40 7-7 4-41 26-54 33-13 7-28 12-43 15l-10 29c-1 1-3 3-5 3l-52 0c-2 0-4-2-4-3l-10-29c-7-1-13-3-19-5-28-11-79-47-86-53-9-1-59-9-81-30-10-10-17-30-15-43 1-8 4-13 10-16 0 0 1-1 2-1l68 0c4-18 21-32 40-32 20 0 36 14 40 32l128 0c4-18 20-32 40-32 19 0 36 14 40 32l33 0c8 1 22 5 22 20 0 5-2 9-4 11 10 16 10 53 0 62z m-91-96c-7 0-13 5-13 12 0 7 6 12 13 12 7 0 12-5 12-12 0-7-5-12-12-12m0 34c-12 0-22-10-22-22 0-12 10-22 22-22 12 0 21 10 21 22 0 12-9 22-21 22m-208-34c-7 0-12 5-12 12 0 7 5 12 12 12 7 0 13-5 13-12 0-7-6-12-13-12m0 34c-12 0-21-10-21-22 0-12 9-22 21-22 12 0 22 10 22 22 0 12-10 22-22 22m125 67l0 27c34-1 60-17 73-27z m-10 27l0-27-72 0c26 18 51 26 72 27z m-89-29c-1-1-2-3-1-5 1-2 2-3 4-3l181 0c2 0 4 1 4 3 1 2 1 4-1 5 0 1-85 85-187 0z"/>
<glyph glyph-name="temple" unicode="&#58;" d="M455 115l-128 0 0 49 128 0z m-398 49l135 0 0-49-135 0z m34 62l101 0 0-49-101 0z m30 14l71 0 0 48-71 0z m39 111l32 0 0-49-32 0z m34 62l124 0 0-49-7 0c1 4 2 7 2 11 0 15-12 28-28 28-15 0-28-13-28-28 0-4 1-7 2-11l-7 0c1 4 2 7 2 11 0 15-12 28-28 28-15 0-28-13-28-28 0-4 1-7 2-11l-6 0z m158-62l0-49-25 0 0 49z m-25-111l64 0 0 48-64 0z m-121-31l107 0 0 17-107 0z m0 31l107 0 0 17-107 0z m0 31l107 0 0 17-107 0z m0 31l107 0 0 18-107 0z m65 73c0 7 7 14 14 14 8 0 14-7 14-14 0-4-1-8-4-11l-19 0c-3 3-5 7-5 11z m-65-41l107 0 0 17-107 0z m6 41c0 7 6 14 14 14 8 0 14-7 14-14 0-4-1-8-4-11l-19 0c-3 3-5 7-5 11z m-6-198l107 0 0 18-107 0z m0-30l107 0 0 17-107 0z m0-32l107 0 0 18-107 0z m215 111l0-49-94 0 0 49z m14-49l0 63-31 0 0 62-38 0 0 62-34 0 0 63-152 0 0-63-34 0 0-62-38 0 0-62-31 0 0-63-34 0 0-76 426 0 0 76z"/>
<glyph glyph-name="train-front" unicode="&#59;" d="M144 85l26 27 195 0 26-27z m59 61c1 0 1 1 1 1l128 0c0 0 0-1 0-1l21-22-171 0z m-53 29l0 224c0 8 7 15 16 15l202 0c8 0 15-7 15-15l0-224c0-9-7-16-15-16l-202 0c-9 0-16 7-16 16z m41 275c2 5 6 7 10 7l131 0c5 0 8-2 10-7l10-23-171 0z m229-378l16 0c3 0 6 3 6 7 0 3-3 6-6 6l-28 0-25 27 12 0c4 0 6 2 6 6 0 3-2 6-6 6l-25 0-21 23 19 0c15 0 28 12 28 28l0 224c0 15-13 28-28 28l-2 0-12 28c-4 9-12 14-22 14l-131 0c-10 0-17-5-21-14l-13-28-1 0c-16 0-28-13-28-28l0-224c0-16 12-28 28-28l21 0-22-23-22 0c-4 0-6-3-6-6 0-4 2-6 6-6l10 0-26-27-35 0c-4 0-7-3-7-6 0-4 3-7 7-7l23 0-18-19c-3-2-3-6 0-9 1-1 3-1 4-1 2 0 3 0 5 2l26 27 271 0 27-27c1-2 3-2 4-2 2 0 4 0 5 1 2 3 2 7 0 9z m-244 310c0 1 4 4 12 4l158 0c7 0 11-3 11-4l0-100c0-1-4-4-11-4l-158 0c-8 0-12 3-12 4z m12-117l158 0c13 0 23 8 23 17l0 100c0 9-10 16-23 16l-158 0c-14 0-24-7-24-16l0-100c0-9 10-17 24-17z m155-59c-7 0-13 6-13 14 0 7 6 13 13 13 8 0 14-6 14-13 0-8-6-14-14-14m0 39c-14 0-26-11-26-25 0-15 12-26 26-26 15 0 26 11 26 26 0 14-11 25-26 25m-157-39c-7 0-13 6-13 14 0 7 6 13 13 13 7 0 14-6 14-13 0-8-7-14-14-14m0 39c-14 0-26-11-26-25 0-15 12-26 26-26 14 0 26 11 26 26 0 14-12 25-26 25m40-16l76 0 0 13-76 0z m0-20l76 0 0 13-76 0z m0-20l76 0 0 13-76 0z"/>
<glyph glyph-name="train-side" unicode="&#60;" d="M172 323l-13-28-81 0 17 28z m292 61l-307 0c-11 0-23-3-33-9-11-6-19-14-25-24l-46-76c-10-15-13-33-9-51 4-17 15-33 30-42 1-1 21-16 45-17l6-1 0 6c1 2 3 37 40 37l237 0c3 0 5 2 5 5 0 4-2 6-5 6l-237 0c-34 0-47-24-50-41-19 3-34 14-35 14-12 8-21 21-25 36-3 14 0 29 7 42l9 15 91 0c1 0 3 1 4 1 1 1 2 2 2 4l17 35c0 2 0 5-1 7-2 2-4 3-6 3l-76 0 6 11c5 8 13 15 21 20 9 5 18 8 28 8l307 0c3 0 5 2 5 5 0 3-2 6-5 6z m-38-89l-221 0 12 28 219 0c-3-8-8-23-10-28m16 39l-228 0c-2 0-3-1-4-1-2-1-3-3-3-4l-15-35c-1-2-1-5 1-7 1-2 3-3 6-3l228 0c0 0 0 0 1 0 3 0 6 2 8 6 1 2 11 28 12 33 1 1 2 4 1 7-1 1-3 4-7 4m-50-142l-222 0c-16 0-28-13-28-29 0-15 12-28 28-28l206 0c3 0 5 3 5 6 0 3-2 6-5 6l-206 0c-9 0-17 7-17 16 0 10 8 17 17 17l222 0c3 0 6 3 6 6 0 3-3 6-6 6"/>
<glyph glyph-name="travel-brochure" unicode="&#61;" d="M416 262l-123-123c-1-2-4-2-6-2-1 1-2 1-2 2l-66 65c1 0 1 1 1 1 0 1 1 2 1 3 0 0 1 1 1 2 0 1 1 1 1 2 0 1 1 2 1 2 1 1 1 2 2 3 0 1 0 2 0 3 1 1 1 2 2 3 0 1 1 1 1 2 0 1 1 2 1 3 1 1 1 2 1 3 1 1 1 2 1 2 1 1 1 2 1 3 1 1 1 2 1 2 1 2 1 3 2 4 5 16-2 31-18 39-7 4-19 6-29 2-7-3-13-8-16-16 0 0-1-3-3-8 0-1-1-1-1-2 0-1 0-1-1-2l-69 69c-2 3-2 7 0 9l123 123c2 2 6 2 9 0l185-186c2-2 2-6 0-8z m-65-190c0-10-8-17-17-17l-101 0c-9 0-17 7-17 18 0 9 8 17 17 17l101 0c9 0 17-8 17-17z m-189 95c-2 2-11 12-6 25 1 5 9 24 17 42l0 0 3 8c5 12 9 21 9 21 1 4 4 7 9 9 1 0 3 1 4 1 1 0 1 0 2 0 1 0 3 0 4 0 0 0 0 0 0 0 2 0 3-1 5-1 0 0 0 0 1 0 1-1 2-1 3-2 10-5 15-14 11-24-3-10-15-35-17-41l-2-3 0-1 0-1 71-70c4-3 8-5 13-5 5 0 10 2 13 5 0 0 0 0 0 0l47 47 1-57c0-9-8-17-18-17l-99 0-3 0c-5 0-9 0-16 8-16 18-49 52-52 56z m263 112l-186 185c-7 7-19 7-26 0l-122-123c-7-7-7-18 0-25l72-73c-8-19-17-41-19-47-6-15 1-30 9-38 4-3 36-38 52-55 4-4 7-6 9-8-6-6-10-14-10-23 0-16 13-29 29-29l101 0c16 0 29 13 29 29l0 1c0 10-5 19-13 24 7 5 12 14 12 23l-1 70 64 63c7 7 7 19 0 26z m-179 87c3 3 3 8 0 12-3 3-8 3-11 0l-15-15-35 8c-1 0-3 0-4-1l-5-5c-1-1-1-2 0-3l26-17-17-17c0 0 0-1 0-1l-13-1c-1 0-1 0-2 0l-4-5c0 0 0-1 0-1l16-5c1 0 1-1 1 0 0 0 0-1 0-1l6-16c0-1 0-1 1-1l4 4c1 1 1 2 1 2l1 13c0 0 1 0 1 1l16 16 17-25c1-1 3-2 3-1l5 5c1 1 2 3 2 4l-9 35z m88-58c-2 2-6 2-8 0l-79-79c-3-2-3-6 0-8 1-2 3-2 4-2 2 0 3 0 4 2l79 79c3 2 3 6 0 8m20-20c-2 3-6 3-9 0l-79-79c-2-2-2-6 0-8 2-1 3-2 5-2 1 0 3 1 4 2l79 79c2 2 2 6 0 8m11-19l-79-79c-2-3-2-6 0-9 1-1 3-2 4-2 2 0 3 1 5 2l79 79c2 3 2 6 0 9-3 2-7 2-9 0"/>
<glyph glyph-name="traveler-with-suitcase" unicode="&#62;" d="M344 225c-3-3-8-3-11-2-6 0-10 3-10 13 0 43 0 79 0 90 0 1 0 2 0 2l0 2c0 4-3 6-7 6-3 0-6-3-6-7 0-2 0-43 0-92 0 0 0 0 0 0 0-1 0-1 0-2 0-25 0-51 0-76l0-60c0-8 0-11 0-16 0-3 0-6-1-11 0-16-10-16-13-16-6-1-10 1-12 3-3 2-4 6-4 12l0 1c0 0 0 0 0 0l0 31c0 0 0 0 0 0l0 115c0 4-3 7-6 7-4 0-7-3-7-7l0-146c0-16-10-16-13-16-1 0-2 0-3 0 1 1 1 2 1 3 7 0 14 6 14 14l0 110c0 8-7 15-15 15l-16 0 0 50c0 0 0 0 0 0 0 7 0 13 0 19 0 17 0 35 0 52l0 11c0 3-3 6-7 6-3 0-6-3-6-6l0-5c0 0 0-1 0-1l0-5c0-17 0-35 0-52 0-11 0-23 0-34 0-9-7-14-13-15-4 1-7 1-9 3-3 3-4 8-4 14 0 18 0 35 0 53 0 17 0 34 0 50 0 24 16 40 39 41 24 0 48 0 72 0 24-1 39-17 40-41 0-17 0-34 0-51 0-17-1-35 0-53 0-4-1-7-3-9z m-110-167l4 0c0-1-3-2-4 0z m-58 0l5 0c-1-2-4-1-5 0z m-14 15l0 110c0 1 1 2 2 2l87 0c1 0 2-1 2-2l0-110c0-1-1-2-2-2l-87 0c-1 0-2 1-2 2z m31 130l28 0 0-5-28 0z m78 253c8 1 15-2 21-8 5-5 8-12 8-20 0-16-12-29-28-29l0 0c-16 0-29 12-29 28 0 16 12 29 28 29z m89-169c0 17 0 34 0 51-1 32-22 53-53 54-5 0-9 0-14 0 12 7 20 21 20 36 0 11-4 22-12 29-9 8-19 12-30 12-23 0-41-19-41-42 0-16 8-28 20-35-5 0-10 0-15 0-31-1-52-22-52-54 0-16 0-33 0-50 0-18 0-35 0-52 0-9 2-16 6-21-5-2-9-7-9-12l0-5-16 0c-8 0-15-7-15-15l0-110c0-8 6-14 14-14 0-9 7-16 16-16 8 0 15 7 16 15l25 0c1-8 8-15 16-15 2 0 4 1 5 1 4-1 7-1 12-1 0 0 1 0 1 0 8 0 15 3 19 8 1 0 1-1 2-1 4-5 11-7 20-7 1 0 1 0 1 0 16 0 26 11 26 29 0 4 1 7 1 10 0 5 0 9 0 17l0 60c0 17 0 36 0 53 3-1 5-2 9-2 8-1 15 1 20 5 5 4 8 11 8 19-1 18 0 36 0 53z"/>
<glyph glyph-name="wallet-with-receipts" unicode="&#63;" d="M424 154l-4 0c0 0-1-1-1-1l-68 0-18 22 19 26 68 0c1 0 1 0 1 0l3 0z m-21-72c0-13-10-23-23-23l-277 0c-13 0-23 10-23 23l0 191c0 13 10 23 23 23l15 0c0 0 0 0 0 0 0 0 0 0 0 0l23 0c0 0 0 0 0 0 0 0 0 0 0 0l239 0c13 0 23-10 23-23l0-56-55 0c-3 0-5-1-7-3l-23-34c-3-3-3-7-1-10l24-30c2-1 4-2 7-2l55 0z m-302 287l17 7 13-64-7 0z m51 42l0-99-4 0-19 94z m16-99l197 0 0 141-197 0z m264-95l-12 0c0 0 0 0-1 0l0 56c0 21-17 38-38 39l0 149c0 5-3 8-8 8l-213 0c-5 0-8-3-8-8l0-34-34-7c-2 0-4-1-5-3-2-2-2-4-2-6l4-19-27-11c-4-1-6-6-4-10l23-59-4 0c-22 0-39-17-39-39l0-191c0-22 17-39 39-39l277 0c22 0 39 17 39 39l0 56 1 0c1 0 1 0 1 0l11 0c4 0 8 3 8 8l0 63c0 5-4 8-8 8z m-228 189l125 0c4 0 7 4 7 8 0 5-3 8-7 8l-125 0c-4 0-8-3-8-8 0-4 4-8 8-8m0-37l125 0c4 0 7 4 7 8 0 4-3 8-7 8l-125 0c-4 0-8-4-8-8 0-4 4-8 8-8m0-33l125 0c4 0 7 3 7 7 0 5-3 8-7 8l-125 0c-4 0-8-3-8-8 0-4 4-7 8-7"/>
<glyph glyph-name="facebook" unicode="&#64;" d="M469 256c0-118-95-213-213-213-118 0-213 95-213 213 0 118 95 213 213 213 118 0 213-95 213-213m-193 44l39 0-4-44-35 0 0-127-53 0 0 127-26 0 0 44 26 0 0 26c0 19 4 33 13 43 9 10 24 14 44 14l35 0 0-44-22 0c-4 0-7 0-10-1-2 0-4-1-5-3-1-2-2-4-2-6 0-1 0-4 0-7z"/>
<glyph glyph-name="facebook-1" unicode="&#91;" d="M282 330l66 0-8-74-58 0 0-213-89 0 0 213-44 0 0 74 44 0 0 44c0 31 8 55 23 71 14 16 39 24 73 24l59 0 0-73-37 0c-7 0-12-1-16-2-4-1-7-3-9-6-2-3-3-6-4-9 0-3 0-7 0-13z"/>
<glyph glyph-name="google-plus" unicode="&#93;" d="M469 256c0-118-95-213-213-213-118 0-213 95-213 213 0 118 95 213 213 213 118 0 213-95 213-213m-101 77l0-17-35 0 0-34-17 0 0 34-34 0 0 17 34 0 0 35 17 0 0-35z m-122-29c0 5-1 11-2 17-2 6-4 12-7 18-2 5-6 10-11 14-5 3-10 5-16 5-8 0-15-3-19-9-5-6-7-14-7-22 0-5 0-9 1-14 1-4 3-9 5-14 2-4 5-8 8-12 2-4 6-7 10-9 4-3 9-4 13-4 9 0 15 3 19 8 4 6 6 13 6 22z m16-116c0 2 0 4-1 6 0 1-1 3-1 4 0 2-1 3-2 5-1 2-2 3-3 4-1 1-2 3-4 4-1 2-3 3-3 4-1 0-3 1-5 3-2 2-3 3-4 3-1 1-2 2-4 3-2 2-4 3-4 3-2 0-4 0-7 0-5 0-10 0-14-1-5 0-10-1-15-3-5-2-9-4-13-6-4-3-7-6-9-10-3-5-4-9-4-15 0-6 2-11 5-16 3-5 7-9 12-11 6-3 11-5 17-6 5-2 11-2 17-2 5 0 10 0 15 1 5 1 9 3 13 6 4 2 8 5 10 9 3 5 4 10 4 15z m-34 180l59 0-18-11-18 0c6-4 11-10 14-17 4-7 6-15 6-22 0-7-1-13-3-18-2-5-5-9-8-13-3-3-6-6-9-8-3-3-5-6-7-8-2-3-3-6-3-9 0-3 0-5 2-7 1-3 3-5 6-7 2-2 5-4 7-6 3-2 6-5 9-8 3-2 5-5 8-9 2-3 4-7 6-11 1-4 2-9 2-14 0-15-6-27-19-38-14-12-32-18-56-18-6 0-11 1-16 2-6 1-11 2-17 4-5 2-10 5-14 8-5 3-8 7-11 12-2 5-4 10-4 16 0 6 2 12 5 18 3 6 7 11 13 15 6 4 12 7 20 10 7 2 14 3 20 5 7 1 14 1 21 1-6 8-9 14-9 20 0 1 0 2 0 3 0 2 1 2 1 3 0 1 1 2 1 3 0 1 1 2 1 3-4-1-7-1-9-1-14 0-25 5-35 13-9 9-14 20-14 33 0 13 4 24 13 34 8 10 19 16 31 19 9 2 17 3 25 3z"/>
<glyph glyph-name="google-plus-1" unicode="&#94;" d="M469 404l0-33-65 0 0-66-33 0 0 66-66 0 0 33 66 0 0 65 33 0 0-65z m-232-56c0 10-2 21-5 32-3 12-7 23-12 34-5 10-12 19-21 26-9 7-20 11-31 11-16 0-28-6-37-18-9-12-13-26-13-42 0-8 1-17 3-26 2-8 5-17 9-26 4-9 9-17 14-24 6-7 13-13 20-17 8-5 17-7 25-7 17 0 29 5 36 15 8 11 12 24 12 42z m30-221c0 3 0 7-1 10-1 3-1 6-2 9-1 3-3 6-5 9-2 3-4 6-5 8-2 2-4 4-7 7-3 3-5 5-7 7-2 1-4 4-8 6-4 3-7 5-8 6-2 1-4 3-9 6-4 3-6 5-7 6-3 0-8 0-13 0-10 0-19 0-27-2-9-1-19-3-28-6-10-3-18-7-25-12-7-5-13-11-18-19-5-8-7-17-7-28 0-11 3-22 9-31 6-9 14-16 24-21 10-5 20-9 31-12 11-2 22-4 33-4 10 0 19 1 28 3 9 3 18 6 26 10 8 5 15 11 19 19 5 8 7 18 7 29z m-64 342l112 0-35-20-34 0c12-8 21-18 28-32 7-14 10-29 10-44 0-12-2-23-6-33-4-10-9-18-14-24-6-6-12-11-17-17-6-5-11-10-15-15-4-6-5-11-5-17 0-5 1-9 4-14 3-4 6-8 11-12 4-4 9-8 15-12 5-4 11-9 16-14 6-6 11-11 15-17 5-6 8-14 11-22 3-9 4-18 4-27 0-28-12-52-35-73-26-22-62-33-108-33-10 0-20 1-31 2-10 2-21 5-31 9-11 4-20 9-28 15-8 6-15 13-20 23-5 9-7 19-7 31 0 10 3 22 9 34 6 11 14 21 25 29 11 8 23 14 37 18 14 4 27 7 40 9 12 2 25 3 38 4-11 14-16 26-16 38 0 2 0 4 0 6 1 2 1 3 2 5 0 1 1 3 2 5 0 3 1 4 1 6-6-1-12-2-18-2-25 0-47 9-65 26-18 16-27 37-27 63 0 24 8 45 24 64 16 19 36 31 60 36 16 4 32 5 48 5z"/>
<glyph glyph-name="linkedin" unicode="&#95;" d="M469 256c0-118-95-213-213-213-118 0-213 95-213 213 0 118 95 213 213 213 118 0 213-95 213-213m-108-23l0-78-45 0 0 73c0 10-2 17-5 23-4 5-10 8-18 8-5 0-10-2-14-5-4-3-7-7-9-12-1-2-1-6-1-11l0-76-46 0c1 37 1 66 1 89 0 23 0 36 0 41l-1 6 46 0 0-19-1 0c2 2 4 5 6 7 2 2 5 5 8 7 3 3 7 5 12 6 4 2 10 2 15 2 16 0 29-5 38-15 10-11 14-26 14-46z m-208-78l45 0 0 136-45 0z m48 178c0-6-2-12-7-16-4-5-10-7-18-7l0 0c-8 0-14 2-19 7-4 4-6 10-6 16 0 7 2 13 7 17 4 5 11 7 18 7 8 0 14-2 18-7 5-4 7-10 7-17z"/>
<glyph glyph-name="linkedin-1" unicode="&#96;" d="M469 219l0-157-91 0 0 147c0 19-4 34-11 45-8 11-20 17-35 17-12 0-22-3-30-10-8-6-13-14-17-23-2-6-3-13-3-23l0-153-92 0c1 73 1 133 1 179 0 46 0 74-1 83l0 13 92 0 0-40-1 0c4 6 8 11 11 15 4 5 10 10 16 15 7 5 15 9 24 12 10 3 20 4 32 4 32 0 57-10 76-31 20-21 29-52 29-93z m-421-157l92 0 0 275-92 0z m97 360c1-14-4-25-14-34-9-9-22-14-37-14l-1 0c-15 0-27 5-36 14-10 9-14 20-14 34 0 14 4 25 14 34 10 9 22 13 37 13 16 0 28-4 37-13 10-9 14-20 14-34z"/>
<glyph glyph-name="pinterest" unicode="&#123;" d="M441 363c19-33 28-68 28-107 0-39-9-74-28-107-19-33-45-59-78-78-33-19-68-28-107-28-21 0-41 3-61 9 11 17 19 32 22 45 2 6 7 26 15 59 4-8 11-14 20-19 10-5 21-8 32-8 22 0 42 6 60 19 18 13 31 30 41 52 10 23 14 48 14 75 0 22-5 41-16 60-11 18-27 33-48 45-21 12-45 18-71 18-19 0-38-3-54-8-17-6-32-13-43-22-12-9-22-19-31-30-8-12-14-24-18-36-4-13-6-25-6-38 0-19 4-36 11-51 7-14 18-24 32-30 6-3 10-1 11 5 0 2 1 4 2 9 1 4 2 7 2 8 2 4 1 8-3 12-9 11-14 25-14 42 0 28 10 52 29 72 20 20 45 30 76 30 28 0 50-7 66-23 15-15 23-34 23-59 0-31-6-58-19-80-13-22-29-33-49-33-11 0-20 4-27 12-7 8-9 18-6 29 1 7 4 15 7 26 4 11 6 20 8 29 3 8 4 15 4 21 0 9-3 17-8 23-5 6-12 9-21 9-12 0-21-5-29-16-8-10-12-24-12-39 0-14 2-25 7-34l-28-116c-3-13-4-30-4-50-38 17-69 43-92 78-24 36-35 75-35 118 0 39 9 74 28 107 19 33 45 59 78 78 33 19 68 28 107 28 39 0 74-9 107-28 33-19 59-45 78-78"/>
<glyph glyph-name="skype" unicode="&#124;" d="M369 210c0 9-2 17-6 25-3 8-8 14-13 19-6 5-13 10-21 14-8 4-15 7-23 9-7 2-15 4-24 6l-29 7c-5 1-9 2-12 3-3 1-6 2-10 3-4 2-6 3-8 5-2 1-3 3-5 6-1 2-2 5-2 8 0 14 14 21 40 21 8 0 15-1 22-3 6-2 11-5 15-8 3-3 7-6 10-9 4-3 7-6 11-8 4-3 9-4 14-4 8 0 15 3 21 9 5 6 8 13 8 22 0 10-6 19-16 27-10 8-23 15-39 19-16 4-33 6-51 6-13 0-25-1-37-4-12-3-23-7-33-13-10-6-18-14-25-24-6-10-9-22-9-36 0-11 2-21 5-29 4-9 9-16 16-21 7-6 14-10 22-14 8-3 18-6 29-9l40-10c17-4 27-7 31-10 6-4 9-9 9-17 0-7-3-13-11-17-7-5-17-8-29-8-9 0-18 2-25 5-8 3-14 6-18 11-5 4-9 8-13 12-4 4-8 8-13 11-4 3-9 4-15 4-9 0-16-3-21-8-4-6-7-13-7-21 0-17 11-32 34-44 23-12 50-18 81-18 13 0 26 2 39 5 12 4 24 9 34 15 10 7 18 15 24 26 6 11 10 23 10 37m100-61c0-29-10-54-31-75-21-21-46-31-75-31-24 0-46 7-65 22-15-3-28-5-42-5-26 0-52 6-76 16-24 10-45 24-62 42-18 17-32 38-42 62-10 24-16 50-16 76 0 13 2 27 5 42-15 19-22 41-22 65 0 29 10 54 31 75 21 21 46 31 75 31 24 0 46-7 65-22 15 3 29 5 42 5 27 0 52-6 76-16 24-10 45-24 63-42 17-17 31-38 41-62 10-24 16-50 16-76 0-14-2-27-5-42 15-19 22-41 22-65"/>
<glyph glyph-name="tumblr" unicode="&#125;" d="M215 469l60 0 0-107 102 0 0-67-102 0 0-110c0-25 2-41 4-48 3-6 8-12 15-16 9-6 20-9 32-9 22 0 43 7 65 21l0-67c-19-9-36-15-50-18-14-4-30-5-48-5-19 0-36 2-51 7-15 5-28 12-39 21-10 9-18 19-22 29-4 10-6 25-6 45l0 150-47 0 0 60c17 5 31 13 43 23 12 10 21 23 29 37 7 14 12 32 15 54"/>
<glyph glyph-name="twitter" unicode="&#126;" d="M469 256c0-118-95-213-213-213-118 0-213 95-213 213 0 118 95 213 213 213 118 0 213-95 213-213m-85 64c-6-10-14-18-24-25 0-1 1-3 1-6 0-13-2-26-6-38-4-13-9-25-17-37-8-11-17-22-27-31-11-9-23-16-38-21-15-6-31-8-48-8-26 0-50 7-72 21 3 0 7 0 11 0 22 0 42 6 59 20-10 0-20 3-28 9-8 6-13 14-16 24 3-1 6-1 9-1 4 0 8 1 12 2-11 2-20 7-27 16-7 9-11 19-11 30l0 1c7-4 14-6 21-6-6 4-11 10-15 17-4 7-6 14-6 22 0 9 2 17 7 24 12-14 26-26 43-35 17-9 35-13 55-14-1 3-2 7-2 10 0 14 5 25 14 34 10 9 21 14 34 14 14 0 25-5 35-15 10 2 20 6 30 11-4-11-11-20-21-26 9 1 18 4 27 8"/>
<glyph glyph-name="twitter-1" unicode="&#92;" d="M469 386c-12-18-26-33-44-46 1-2 1-6 1-11 0-23-4-47-11-70-6-24-17-46-31-68-14-21-30-40-50-57-19-16-42-29-70-39-27-10-56-15-87-15-49 0-94 13-134 39 6 0 13-1 21-1 40 0 77 13 108 38-19 0-36 6-51 17-15 11-25 26-30 43 6-1 11-1 16-1 8 0 16 1 23 3-20 4-37 14-50 30-13 16-20 35-20 56l0 1c12-7 25-11 40-11-12 8-22 18-29 31-7 13-10 27-10 42 0 15 4 30 11 44 22-27 49-49 80-65 31-16 65-25 101-27-2 7-2 14-2 20 0 24 8 45 25 62 17 17 38 26 62 26 25 0 47-10 64-28 20 4 38 11 55 21-6-21-19-37-38-48 17 2 34 6 50 14"/>
<glyph glyph-name="xing" unicode="&#57344;" d="M469 256c0-118-95-213-213-213-118 0-213 95-213 213 0 118 95 213 213 213 118 0 213-95 213-213m-119 109c1-1 1-3 0-5l-71-125 0-1 45-82c1-2 1-4 0-5-1-2-2-2-4-2l-32 0c-4 0-7 2-9 6l-46 83c2 3 26 46 72 127 2 4 5 6 8 6l33 0c2 0 3 0 4-2z m-108-86c-1-2-13-22-35-62-2-4-5-6-9-6l-32 0c-2 0-3 1-4 3-1 1-1 3 0 4l34 61c0 0 0 0 0 0l-22 37c-1 2-1 4 0 5 1 2 2 2 4 2l33 0c3 0 6-2 8-6z"/>
<glyph glyph-name="xing-1" unicode="&#57345;" d="M426 465c2-2 2-5 0-9l-136-241 0 0 86-159c2-3 2-7 1-9-2-3-5-4-9-4l-61 0c-7 0-13 4-17 11l-88 161c3 5 49 86 137 243 5 7 10 11 17 11l62 0c4 0 6-1 8-4z m-208-165c-2-3-24-42-66-118-5-8-11-12-17-12l-62 0c-3 0-6 2-8 5-1 3-1 6 0 9l66 116c0 0 0 0 0 0l-42 72c-2 4-2 7 0 9 1 3 4 4 8 4l62 0c7 0 12-4 17-11z"/>
<glyph glyph-name="youtube" unicode="&#57346;" d="M391 173l0-11-22 0 0 11c0 11 4 16 11 16 7 0 11-5 11-16z m21-46l0 3-22 0c0-8 0-13 0-14-1-6-5-9-10-9-7 0-11 5-11 16l0 21 43 0 0 25c0 12-2 21-7 27-6 8-14 12-25 12-11 0-19-4-25-12-5-6-7-15-7-27l0-42c0-12 2-21 7-27 6-8 15-12 26-12 11 0 20 4 25 12 3 5 5 9 5 13 1 2 1 6 1 14z m-44 302l0-119-21 0 0 13c-9-10-17-15-25-15-7 0-12 3-14 9-1 4-2 10-2 18l0 94 22 0 0-88c0-5 0-8 0-8 1-4 2-5 5-5 4 0 9 3 14 10l0 91z m-58-256l0-50c0-11-3-16-9-16-4 0-7 2-11 5l0 72c4 3 7 5 11 5 6 0 9-5 9-16z m21-48l0 46c0 12 0 20-2 24-3 9-8 13-17 13-8 0-15-4-22-12l0 51-21 0 0-158 21 0 0 12c7-9 15-13 22-13 9 0 14 4 17 13 2 4 2 12 2 24z m-64 219l0 50c0 11-3 17-10 17-7 0-10-6-10-17l0-50c0-11 3-16 10-16 7 0 10 5 10 16z m22 46l0-42c0-12-3-22-7-28-6-8-14-12-25-12-11 0-19 4-25 12-5 6-7 16-7 28l0 42c0 13 2 22 7 28 6 8 14 12 25 12 11 0 19-4 25-12 4-6 7-15 7-28z m-60-301l21 0 0 118-21 0 0-90c-5-7-9-10-13-10-3 0-5 2-5 5-1 0-1 3-1 8l0 87-21 0 0-93c0-8 1-14 2-18 2-5 7-8 14-8 7 0 16 5 24 14z m-28 380l24 0-29-95 0-64-24 0 0 64c-2 12-7 29-14 51-6 16-11 31-16 44l25 0 17-62z m-40-244l25 0 0 22-74 0 0-22 25 0 0-136 24 0z m277-59c0-38-2-65-6-84-2-9-7-17-14-23-7-7-15-10-24-11-29-4-73-5-132-5-59 0-103 1-132 5-10 1-18 4-25 11-7 6-11 14-13 23-5 18-7 46-7 84 0 37 2 64 7 83 2 9 6 17 13 23 7 7 16 10 25 12 29 3 73 4 132 4 59 0 103-1 132-4 9-2 17-5 24-12 7-6 12-14 14-23 4-18 6-46 6-83z"/>
<glyph glyph-name="alert" unicode="&#57347;" d="M62 91l388 0-194 336z m400-14l-412 0c-3 0-5 1-6 3-2 2-2 5 0 7l206 358c2 4 10 4 12 0l206-358c2-2 2-5 0-7-1-2-3-3-6-3z m-213 218l22 0-4-113-15 0z m11-133c7 0 13-6 13-13 0-7-6-13-13-13-7 0-13 6-13 13 0 7 6 13 13 13z"/>
<glyph glyph-name="checkmark" unicode="&#57348;" d="M205 113c-2 0-4 0-5 2l-155 155c-3 2-3 7 0 9 2 3 7 3 9 0l151-150 253 253c2 3 7 3 9 0 3-3 3-7 0-10l-258-257c-1-2-3-2-4-2"/>
<glyph glyph-name="checkmark-outline" unicode="&#57349;" d="M124 336c-2 0-4-1-6-2l-60-60c-3-3-3-8 1-12l153-153c3-3 8-3 12 0l229 230c4 4 4 9 0 12l-59 60c-2 1-4 2-6 2l0 0c-2 0-4-1-6-2l-160-160c-1-1-3-2-4-2-2 0-4 1-5 2l-82 82c-1 0-1 1-1 1-2 1-4 2-6 2m94-242c-6 0-12 2-16 6l-153 153c-8 8-8 22 0 31l2 1 58 58c8 9 21 9 30 1 0 0 0 0 1-1l78-78 155 155c4 4 9 7 15 7l0 0c6 0 11-3 16-7l59-59c0 0 0 0 0 0 8-9 8-23 0-31l-230-230c-4-4-10-6-15-6"/>
<glyph glyph-name="checkmark-outline-circled" unicode="&#57350;" d="M115 395c-37-37-57-87-57-139 0-53 20-103 58-140 37-38 87-58 140-58 53 0 103 20 140 58 0 0 0 0 1 0 37 38 57 87 57 140 0 53-20 103-58 140 0 0 0 0 0 0-37 38-87 58-140 58-53 0-102-20-140-58 0 0-1 0-1-1m141-352c-57 0-111 22-151 62-40 40-62 94-62 151 0 57 22 110 62 151 0 0 1 0 1 1 41 40 94 61 150 61 57 0 110-22 151-62 40-40 62-94 62-151 0-57-22-110-62-151 0 0-1 0-1 0-40-40-93-62-150-62m-82 257c-1 0-1 0-2 0l-36-37c0 0-1-1-1-1-1 0-1-1 0-2l96-96c0 0 2 0 2 0l144 144c0 1 0 2 0 3l-37 37c-1 0-1 0-2 0 0 0-1 0-1 0l-100-100c-2-3-8-3-10 0l-51 51c-1 0-1 0-1 1 0 0-1 0-1 0m58-151c-4 0-9 1-12 5l-96 95c-6 7-6 17 0 24 1 0 1 1 2 1l36 36c6 7 16 7 23 1 0 0 0-1 1-1l46-46 94 94c3 3 8 5 12 5l0 0c5 0 9-2 12-5l37-37c0 0 0 0 0 0 7-7 7-17 0-24l-143-143c-3-4-8-5-12-5"/>
<glyph glyph-name="clock-1" unicode="&#57351;" d="M380 57l-44 40c0 0 1 1 1 1 5 3 10 5 14 8 1 1 1 1 2 1 4 3 7 6 11 9 1 0 1 1 2 1l32-60z m-194 45l0 0c-7 3-14 6-20 9-1 1-1 1-2 1 0 1-1 1-1 1-3 2-6 4-9 6-4 2-7 4-10 7l0 0c-42 33-66 82-66 135 0 28 7 57 21 82 21 39 56 68 98 81 17 5 34 8 52 8 17 0 33-2 49-7 43-13 79-41 101-80l0 0c14-26 21-55 21-84 0-49-20-95-57-128-13-11-27-21-42-28l0 0c-42-19-92-20-135-3z m-56-45l-18 0 30 53c0 0 1-1 2-1 3-2 6-5 10-7 1 0 1-1 2-1 5-3 9-5 14-7 0 0 0-1 1-1z m8 398c18 0 35-7 46-21-2 0-3-1-4-2-3 0-5-1-7-2-3-2-6-3-9-5-2-1-4-2-6-3-3-2-6-3-9-5-2-1-3-2-5-3-4-3-9-7-13-10 0 0 0 0 0 0-4-4-8-8-12-11-1-2-2-3-4-4-2-3-5-6-7-9-2-1-3-3-4-5-2-2-4-5-6-8-2-2-3-4-4-6-1-1-2-2-3-3-8 10-13 23-13 37 0 33 27 60 60 60z m219 0c33 0 60-27 60-60 0-13-4-25-11-35-1 1-2 3-3 4-1 2-3 4-4 5-2 3-4 6-6 9-2 1-3 3-4 5-3 2-5 5-8 8-1 1-2 2-4 4-4 4-8 7-12 11 0 0 0 0 0 0-5 3-9 6-13 9-2 1-4 2-5 3-3 2-6 4-10 6-2 1-4 2-5 3-4 1-7 3-10 4-2 1-4 2-6 3-1 0-3 1-4 1 11 13 27 20 45 20z m77-194c0 30-7 60-21 86 11 14 18 30 18 48 0 41-33 74-74 74-24 0-46-11-59-29-33 8-68 8-100-1-14 19-36 30-60 30-41 0-74-33-74-74 0-19 7-37 20-50-13-26-20-55-20-84 0-56 24-107 67-142l-43-76 47 0 50 44c20-7 42-11 64-11 26 0 50 5 73 15l53-48 47 0-46 84c37 35 58 83 58 134z m-230-126c-16 6-31 14-44 26-28 25-45 62-45 100 0 22 6 43 16 62 16 32 45 56 79 66 13 4 26 6 39 6 13 0 25-2 37-5 34-10 64-34 81-65 11-20 16-42 16-64 0-36-14-69-39-95-12-12-26-21-42-28-31-13-66-15-98-3m150 21c28 28 43 65 43 105 0 25-6 49-18 70-19 35-52 62-90 72-27 8-56 8-83-1-37-11-69-37-88-72-11-21-17-45-17-69 0-42 18-83 50-111 14-12 30-22 48-28 16-6 33-9 50-9 21 0 40 4 59 12 17 8 33 18 46 31m-91 124c-4 3-9 4-14 4-4 0-8-1-12-3l-37 33-9-11 37-32c-2-3-2-7-2-10 0-13 10-24 23-24 13 0 24 11 24 24 0 3-1 5-2 8l68 49-8 12z"/>
<glyph glyph-name="clock-2" unicode="&#57352;" d="M256 58c-109 0-198 89-198 198 0 109 89 198 198 198 109 0 198-89 198-198 0-109-89-198-198-198m0 411c-118 0-213-95-213-213 0-118 95-213 213-213 118 0 213 95 213 213 0 118-95 213-213 213m161-205l-154 0 0 107c0 4-4 8-8 8l0 0c-4 0-7-3-7-8l-1-123 170 0c4 0 8 4 8 8 0 4-4 8-8 8m-163 142c6 0 10 4 10 9 0 5-4 9-10 9-5 0-9-4-9-9 0-5 4-9 9-9m86-21c5 0 9 4 9 9 0 6-4 10-9 10-5 0-9-4-9-10 0-5 4-9 9-9m62-65c5 0 9 4 9 9 0 5-4 9-9 9-6 0-10-4-10-9 0-5 4-9 10-9m-305-54c-5 0-10-4-10-9 0-6 5-10 10-10 5 0 9 4 9 10 0 5-4 9-9 9m157-164c-5 0-9-4-9-9 0-6 4-10 9-10 6 0 10 4 10 10 0 5-4 9-10 9m-129 227c0 5-4 9-10 9-5 0-9-4-9-9 0-5 4-9 9-9 6 0 10 4 10 9m59 61c0 6-4 10-9 10-5 0-9-4-9-10 0-5 4-9 9-9 5 0 9 4 9 9m218-196c-6 0-10-4-10-9 0-6 4-10 10-10 5 0 9 4 9 10 0 5-4 9-9 9m-66-68c-5 0-9-4-9-9 0-5 4-9 9-9 5 0 9 4 9 9 0 5-4 9-9 9m-156 2c-5 0-9-4-9-9 0-5 4-9 9-9 5 0 10 4 10 9 0 5-5 9-10 9m-61 60c-5 0-10-4-10-9 0-6 5-10 10-10 5 0 9 4 9 10 0 5-4 9-9 9"/>
<glyph glyph-name="clock-3" unicode="&#57353;" d="M256 454c-109 0-198-89-198-198 0-109 89-198 198-198 109 0 198 89 198 198 0 109-89 198-198 198m0-411c-118 0-213 95-213 213 0 118 95 213 213 213 118 0 213-95 213-213 0-118-95-213-213-213m0 179l-87 87c-2 3-2 8 1 11 2 3 7 3 10 0l76-76 110 109c3 3 7 3 10 0 3-3 3-8 0-11z"/>
<glyph glyph-name="cloud-talking" unicode="&#57354;" d="M300 140c1 0 3-1 5-2 36-36 76-51 101-57-17 18-27 42-30 71 0 4 2 7 6 8 42 8 73 45 73 88 0 25-10 47-27 64-2 2-3 5-2 8 2 8 3 16 3 25 0 49-40 89-89 89-17 0-33-4-47-13-3-2-7-1-9 2-17 20-42 32-69 32-50 0-90-40-90-89 0-5 1-10 1-14 1-4-1-7-5-8-38-11-64-46-64-86 0-49 40-89 89-89 8 0 16 1 24 3 3 0 6-1 7-3 17-26 45-41 75-41 16 0 30 4 44 11 1 1 2 1 4 1m133-77c0 0 0 0 0 0-3 0-73 3-135 61-14-7-30-10-46-10-33 0-64 16-84 43-7-2-14-3-22-3-57 0-103 47-103 104 0 44 28 83 68 98 0 3 0 6 0 10 0 57 47 103 104 103 29 0 56-12 76-33 15 8 32 12 49 12 57 0 103-46 103-103 0-9-1-17-3-25 19-20 29-45 29-72 0-48-32-89-78-101 4-24 15-54 45-71 3-1 5-5 4-8-1-3-4-5-7-5"/>
<glyph glyph-name="cloud-thinking" unicode="&#57355;" d="M354 127c-15 0-28-12-28-27 0-14 13-26 28-26 16 0 29 12 29 26 0 15-13 27-29 27m0-67c-23 0-42 18-42 40 0 22 19 40 42 40 23 0 42-18 42-40 0-22-19-40-42-40m89 18c-6 0-11-5-11-11 0-6 5-11 11-11 6 0 11 5 11 11 0 6-5 11-11 11m0-35c-13 0-24 11-24 24 0 13 11 24 24 24 14 0 25-11 25-24 0-13-11-24-25-24m-258 147c2 0 4-1 5-3 16-24 42-38 71-38 26 0 51 12 67 32 1 3 5 4 7 3 10-5 21-7 32-7 47 0 84 38 84 84 0 23-9 45-26 61-1 2-2 4-1 7 2 7 3 15 3 23 0 47-38 84-84 84-16 0-31-4-44-12-3-2-6-1-9 1-16 20-39 31-64 31-47 0-84-38-84-84 0-4 0-9 1-13 0-3-2-7-5-7-36-11-61-44-61-81 0-46 38-84 84-84 8 0 15 1 22 3 1 0 1 0 2 0m76-55c-32 0-61 15-79 41-7-2-14-3-21-3-53 0-97 44-97 98 0 41 26 78 65 92-1 3-1 6-1 9 0 54 44 97 98 97 27 0 53-11 71-31 14 8 30 12 46 12 54 0 97-44 97-98 0-8-1-16-2-23 17-18 27-42 27-68 0-53-44-97-98-97-11 0-22 2-32 5-19-21-45-34-74-34"/>
<glyph glyph-name="eye" unicode="&#57356;" d="M55 249c0 0 0 0 0 0 0 0 0 0 0 0z m0-1l0 0z m402 0l0 0z m-201-122l1 0c13 0 131 3 199 123-68 119-185 122-199 122 0 0-1 0-1 0l-1 0c-13 0-131-3-199-122 68-120 186-123 199-123 0 0 1 0 1 0z m1-13c0 0-1 0-1 0l-1 0c-14 0-139 4-211 129-2 4-2 9 0 13 72 125 197 129 211 129l1 0c0 0 1 0 1 0 14 0 139-4 211-129 2-4 2-8 0-12-72-126-197-130-211-130z m-1 216c-44 0-80-36-80-80 0-45 36-81 80-81 44 0 80 36 80 81 0 44-36 80-80 80m0-173c-51 0-93 41-93 93 0 51 42 93 93 93 51 0 93-42 93-93 0-52-42-93-93-93m0 132c-22 0-39-18-39-39 0-22 17-40 39-40 22 0 39 18 39 40 0 21-17 39-39 39m0-91c-29 0-52 23-52 52 0 28 23 51 52 51 29 0 52-23 52-51 0-29-23-52-52-52"/>
</font>
</defs>
</svg>
